<?xml version="1.0" encoding="utf-8"?>
<svg width="524px" height="275px" viewBox="0 0 524 275" version="1.1" xmlns:xlink="http://www.w3.org/1999/xlink" xmlns="http://www.w3.org/2000/svg">
  <defs>
    <path d="M0 0L523.795 0L523.795 274.61L0 274.61L0 0Z" id="path_1" />
    <path d="M13.1388 44.2115C30.6553 54.3294 59.0608 54.3294 76.583 44.2115C84.8165 39.457 89.1826 33.3108 89.6754 27.0835C89.7044 26.7124 89.716 14.8261 89.7218 14.4492C89.7218 7.80441 85.3673 12.6575 76.583 7.58408C59.0608 -2.52804 30.6553 -2.52804 13.1388 7.58408C4.44145 12.6112 0.0521819 7.68266 0 14.2694C0 14.6347 0 26.5095 0.0289841 26.8806C0.440707 33.1949 4.80677 39.4106 13.1388 44.2115L13.1388 44.2115Z" id="path_2" />
    <path d="M13.1388 44.2173C30.6611 54.3294 59.0608 54.3294 76.5831 44.2173C84.8223 39.457 89.1826 33.3108 89.6755 27.0835C89.6755 26.7125 89.7218 14.8261 89.7218 14.455C89.7508 7.80443 85.3674 12.6575 76.5831 7.5841C59.0666 -2.52802 30.6611 -2.52802 13.1388 7.5841C4.44145 12.6112 0.0579859 7.68267 0 14.2695C0 14.6405 0 26.5153 0.034788 26.8806C0.440689 33.1775 4.81835 39.4048 13.1388 44.2173L13.1388 44.2173Z" id="path_3" />
    <clipPath id="mask_1">
      <use xlink:href="#path_1" />
    </clipPath>
    <clipPath id="mask_2">
      <use xlink:href="#path_2" />
    </clipPath>
    <clipPath id="mask_3">
      <use xlink:href="#path_3" />
    </clipPath>
  </defs>
  <g id="shape9Asset-1">
    <path d="M0 0L523.795 0L523.795 274.61L0 274.61L0 0Z" id="Background" fill="none" fill-rule="evenodd" stroke="none" />
    <g clip-path="url(#mask_1)">
      <g id="Group">
        <g id="Layer_2">
          <g id="Слой_1">
            <path d="M521.806 181.485L318.108 63.8559L200.903 63.5776L221.858 78.3515L134.304 128.9C134.06 129.044 133.909 129.307 133.909 129.59C133.909 129.874 134.06 130.137 134.304 130.28L342.878 250.698L437.668 235.356L521.742 188.39C522.984 187.691 523.758 186.381 523.771 184.956C523.785 183.53 523.035 182.207 521.806 181.485L521.806 181.485Z" id="Shape" fill="#B3B3B3" fill-opacity="0.3" stroke="none" />
            <path d="M342.878 248.779L133.939 128.141C133.58 127.932 133.58 74.5884 133.939 74.3797L221.864 76.4323L431.626 197.546L342.878 248.779Z" id="Shape" fill="#A9C55E" stroke="none" />
            <path d="M342.878 195.615L134.31 75.1972C134.066 75.0536 133.915 74.791 133.915 74.5072C133.915 74.2235 134.066 73.961 134.31 73.8173L221.864 23.2683L431.626 144.376L342.878 195.615Z" id="Shape" fill="#C1D97A" stroke="none" />
            <path d="M343.91 189.927L142.973 73.9158L220.831 28.9622L421.769 144.973L343.91 189.927L343.91 189.927Z" id="Polygon" fill="#4E7735" fill-rule="evenodd" stroke="none" />
            <path d="M369.44 136.908C362.482 132.884 359.253 127.491 359.711 122.192L256.438 62.5687C246.75 63.1079 236.724 61.2525 229.355 56.9966L207.095 44.1419L168.827 66.2216L191.086 79.0763C198.265 83.2162 201.477 88.8057 200.781 94.2502L304.836 154.314C313.754 154.181 322.753 156.054 329.525 159.956L356.388 175.466L396.309 152.418L369.44 136.908Z" id="Shape" fill="#C1D97A" stroke="none" />
            <path d="M309.37 125.033C291.454 135.377 264.84 136.78 249.927 128.17C235.014 119.56 237.449 104.2 255.371 93.8559C273.294 83.5119 299.902 82.1029 314.809 90.7133C329.716 99.3237 327.287 114.689 309.37 125.033L309.37 125.033Z" id="Shape" fill="#4E7735" stroke="none" />
            <path d="M234.649 84.7875C227.691 88.7941 216.465 88.7941 209.531 84.7875C202.596 80.7809 202.573 74.2927 209.531 70.2919C216.489 66.2912 227.714 66.2912 234.649 70.2919C241.583 74.2927 241.583 80.7867 234.649 84.7875L234.649 84.7875Z" id="Shape" fill="#4E7735" stroke="none" />
            <path d="M348.091 150.29C341.133 154.291 329.914 154.291 322.979 150.29C316.044 146.289 316.021 139.795 322.979 135.795C329.937 131.794 341.162 131.788 348.097 135.795C355.031 139.801 355.026 146.284 348.091 150.29L348.091 150.29Z" id="Shape" fill="#4E7735" stroke="none" />
            <path d="M342.878 195.615L431.626 144.376L431.626 197.546L342.878 248.779L342.878 195.615L342.878 195.615Z" id="Polygon" fill="#7F9850" fill-rule="evenodd" stroke="none" />
            <path d="M195.65 110.613L240.824 136.693L329.716 85.4195L284.537 59.2927L195.65 110.613L195.65 110.613Z" id="Polygon" fill="#F2FFE3" fill-rule="evenodd" stroke="none" />
            <path d="M195.627 110.59L201.889 114.272L290.845 62.9282L284.583 59.2521L195.627 110.59L195.627 110.59Z" id="Polygon" fill="#D14845" fill-rule="evenodd" stroke="none" />
            <path d="M234.562 133.139L240.969 136.774L329.716 85.3963L323.53 81.8652L234.562 133.139L234.562 133.139Z" id="Polygon" fill="#D14845" fill-rule="evenodd" stroke="none" />
            <path d="M195.627 110.59L195.627 163.87L241.003 190.286L240.841 136.687L195.627 110.59L195.627 110.59Z" id="Polygon" fill="#CFCAC1" fill-rule="evenodd" stroke="none" />
            <path d="M195.627 110.59L195.627 163.87L202.045 167.882L201.964 114.196L195.627 110.59L195.627 110.59Z" id="Polygon" fill="#B83F3D" fill-rule="evenodd" stroke="none" />
            <path d="M234.654 133.081L234.585 186.442L241.003 190.454L240.98 136.763L234.654 133.081L234.654 133.081Z" id="Polygon" fill="#B83F3D" fill-rule="evenodd" stroke="none" />
            <path d="M261.257 170.682L342.733 216.431L342.241 216.431L347.813 213.346L353.402 210.29L364.604 204.219C368.333 202.19 372.084 200.195 375.83 198.201C379.575 196.206 383.367 194.235 387.102 192.258L387.148 192.345C383.466 194.461 379.802 196.601 376.102 198.688C372.403 200.775 368.715 202.886 365.01 204.956L353.889 211.172L348.317 214.256L342.728 217.312L342.478 217.451L342.235 217.312L261.204 170.769L261.257 170.682Z" id="Shape" fill="#6B853D" stroke="none" />
            <path d="M133.574 119.629L164.426 137.122L133.093 120.51L133.574 119.629L133.574 119.629Z" id="Polygon" fill="#6B853D" fill-rule="evenodd" stroke="none" />
            <path d="M112.515 248.976L283.615 78.8559C283.91 78.5602 270.279 26.9966 269.85 26.8864L185.381 51.3955L13.6085 222.165L112.515 248.976Z" id="Shape" fill="#7F9850" stroke="none" />
            <path d="M98.9004 197.58L269.699 27.7851C269.902 27.585 269.982 27.2913 269.909 27.0156C269.836 26.74 269.621 26.5247 269.345 26.4515L171.773 0L0 170.769L98.9004 197.58Z" id="Shape" fill="#C1D97A" stroke="none" />
            <path d="M96.4536 192.345L260.996 28.7592L174.225 5.2358L9.67725 168.821L96.4536 192.345L96.4536 192.345Z" id="Polygon" fill="#4E7735" fill-rule="evenodd" stroke="none" />
            <path d="M58.1969 147.629C63.9081 141.952 65.6418 135.922 63.8385 130.918L148.435 46.8381C157.932 44.8841 167.146 40.5238 173.182 34.5227L191.411 16.3974L234.034 27.9533L215.781 46.0785C209.908 51.9174 208.243 58.1389 210.296 63.2297L125.108 147.919C116.452 150.07 108.23 154.181 102.687 159.689L80.6882 181.566L36.1984 169.505L58.1969 147.629Z" id="Shape" fill="#C1D97A" stroke="none" />
            <path d="M113.228 120.771C133.197 126.187 159.283 120.731 171.494 108.595C183.705 96.4594 177.414 82.2247 157.451 76.8092C137.488 71.3936 111.396 76.8497 99.1845 88.9854C86.9735 101.121 93.2588 115.385 113.228 120.771L113.228 120.771Z" id="Shape" fill="#4E7735" stroke="none" />
            <path d="M175.159 62.7426C182.888 64.8416 193.759 61.9599 199.442 56.3124C205.124 50.6649 203.46 44.3912 195.725 42.3271C187.99 40.2629 177.13 43.0808 171.448 48.7051C165.766 54.3294 167.43 60.6495 175.159 62.7426L175.159 62.7426Z" id="Shape" fill="#4E7735" stroke="none" />
            <path d="M82.2595 155.103C89.9885 157.196 100.86 154.314 106.542 148.672C112.225 143.031 110.561 136.745 102.832 134.652C95.1026 132.559 84.2309 135.435 78.5486 141.083C72.8664 146.73 74.5304 153.004 82.2595 155.103L82.2595 155.103Z" id="Shape" fill="#4E7735" stroke="none" />
            <path d="M98.9004 197.58L0 170.769L13.6084 222.165L112.515 248.976L98.9004 197.58L98.9004 197.58Z" id="Polygon" fill="#A9C55E" fill-rule="evenodd" stroke="none" />
            <path d="M219.469 77.7195L182.476 114.498L83.4191 87.6866L120.412 50.8679L219.469 77.7195L219.469 77.7195Z" id="Polygon" fill="#F2FFE3" fill-rule="evenodd" stroke="none" />
            <path d="M219.48 77.6963L214.372 82.8567L115.24 55.9993L120.348 50.8389L219.48 77.6963L219.48 77.6963Z" id="Polygon" fill="#D14845" fill-rule="evenodd" stroke="none" />
            <path d="M187.619 109.459L182.354 114.614L83.4133 87.6692L88.4926 82.6712L187.619 109.459L187.619 109.459Z" id="Polygon" fill="#D14845" fill-rule="evenodd" stroke="none" />
            <path d="M219.48 77.6963L233.124 129.202L196.021 166.351L182.459 114.498L219.48 77.6963L219.48 77.6963Z" id="Polygon" fill="#CFCAC1" fill-rule="evenodd" stroke="none" />
            <path d="M219.48 77.6963L233.124 129.202L227.946 134.722L214.279 82.8045L219.48 77.6963L219.48 77.6963Z" id="Polygon" fill="#B83F3D" fill-rule="evenodd" stroke="none" />
            <path d="M187.515 109.424L201.245 160.994L196.067 166.514L182.343 114.602L187.515 109.424L187.515 109.424Z" id="Polygon" fill="#B83F3D" fill-rule="evenodd" stroke="none" />
            <path d="M171.494 152.656L105.081 218.39L104.878 218.587L104.606 218.518L98.4192 216.993L92.2441 215.439L79.9054 212.273C75.7887 211.224 71.6835 210.134 67.5784 209.049C63.4732 207.965 59.3739 206.846 55.2687 205.744L55.2687 205.652C59.4087 206.603 63.5544 207.524 67.6885 208.51C71.8227 209.496 75.9568 210.476 80.1084 211.456L92.4876 214.453L98.6685 215.984L104.849 217.538L104.374 217.666L171.425 152.586L171.494 152.656Z" id="Shape" fill="#6B853D" stroke="none" />
            <path d="M282.478 71.2718L256.433 95.3577L281.782 70.5471L282.478 71.2718L282.478 71.2718Z" id="Polygon" fill="#6B853D" fill-rule="evenodd" stroke="none" />
            <path d="M274.471 214.645C256.409 204.208 227.157 204.15 209.125 214.563C206.062 216.277 203.283 218.454 200.886 221.017C195.718 222.214 190.747 224.141 186.123 226.74C168.091 237.148 168.114 254.061 186.17 264.521C204.225 274.981 233.483 275.016 251.51 264.608C254.89 262.654 270.145 254.954 274.511 252.432C280.234 249.127 284.142 245.167 286.224 240.963C286.305 240.806 288.16 237.438 287.963 234.741C288.526 227.511 284.021 220.176 274.471 214.645L274.471 214.645Z" id="Shape" fill="#CCCCCC" fill-opacity="0.5" stroke="none" />
            <path d="M186.738 262.66C204.254 272.778 232.66 272.778 250.182 262.66C258.416 257.905 262.782 251.759 263.274 245.532C263.303 245.161 263.315 233.274 263.321 232.897C263.321 226.253 258.966 231.106 250.182 226.032C232.66 215.92 204.254 215.92 186.738 226.032C178.04 231.059 173.651 226.131 173.599 232.718C173.599 233.083 173.599 244.958 173.628 245.329C174.04 251.643 178.406 257.859 186.738 262.66L186.738 262.66Z" id="Shape" fill="#EF8809" stroke="none" />
            <g id="Mask-group" transform="translate(173.599 218.4483)">
              <path d="M13.1388 44.2115C30.6553 54.3294 59.0608 54.3294 76.583 44.2115C84.8165 39.457 89.1826 33.3108 89.6754 27.0835C89.7044 26.7124 89.716 14.8261 89.7218 14.4492C89.7218 7.80441 85.3673 12.6575 76.583 7.58408C59.0608 -2.52804 30.6553 -2.52804 13.1388 7.58408C4.44145 12.6112 0.0521819 7.68266 0 14.2694C0 14.6347 0 26.5095 0.0289841 26.8806C0.440707 33.1949 4.80677 39.4106 13.1388 44.2115L13.1388 44.2115Z" id="Shape" fill="none" stroke="none" />
              <g clip-path="url(#mask_2)">
                <g id="Group" transform="translate(0.017425537 11.487305)">
                  <path d="M89.6232 23.1397C90.0331 23.1397 90.3654 22.8075 90.3654 22.3976L90.3654 0.741164C90.3649 0.331654 90.0327 0 89.6232 0C89.2137 0 88.8816 0.331671 88.8811 0.741164L88.8811 22.3976C88.8811 22.8074 89.2133 23.1397 89.6232 23.1397L89.6232 23.1397Z" id="Shape" fill="#FF9E23" stroke="none" />
                  <path d="M86.382 2.97349L86.382 24.6067C86.3866 24.9949 86.6852 25.3161 87.072 25.3489L87.1416 25.3489C87.5502 25.3457 87.8806 25.0153 87.8838 24.6067L87.8838 2.97349C87.8838 2.56037 87.5489 2.22549 87.1358 2.22549L87.0662 2.22551C86.6795 2.26134 86.3834 2.58512 86.382 2.97347L86.382 2.97349Z" id="Shape" fill="#FF9E23" stroke="none" />
                  <path d="M83.9178 5.20582L83.9178 26.8448C83.9196 27.2373 84.2223 27.5626 84.6136 27.5928L84.689 27.5928C85.103 27.5896 85.4369 27.2531 85.4369 26.839L85.4369 5.20582C85.4369 4.79271 85.1021 4.45784 84.6889 4.45784L84.6136 4.45784C84.2223 4.48803 83.9196 4.8134 83.9178 5.20583L83.9178 5.20582Z" id="Shape" fill="#FF9E23" stroke="none" />
                  <path d="M81.4477 7.43813L81.4477 29.0655C81.4529 29.4642 81.7632 29.7921 82.1609 29.8193L82.2305 29.8193C82.65 29.8193 82.9901 29.4792 82.9901 29.0597L82.9901 7.43232C82.9869 7.0151 82.6477 6.67854 82.2305 6.67856L82.1609 6.67856C81.761 6.70588 81.4498 7.03721 81.4477 7.43813L81.4477 7.43813Z" id="Shape" fill="#FF9E23" stroke="none" />
                  <path d="M78.9777 9.67044L78.9777 31.292C78.983 31.696 79.2992 32.0273 79.7025 32.0516L79.7662 32.0516C80.1857 32.0516 80.5258 31.7115 80.5258 31.292L80.5258 9.67044C80.5258 9.25095 80.1858 8.91087 79.7662 8.91087L79.6909 8.91087C79.2922 8.9409 78.9826 9.27066 78.9777 9.67044L78.9777 9.67044Z" id="Shape" fill="#FF9E23" stroke="none" />
                  <path d="M76.5077 11.9027L76.5077 33.5127C76.5134 33.9241 76.8388 34.2597 77.2498 34.2781L77.3194 34.2781C77.7421 34.2781 78.0848 33.9354 78.0848 33.5127L78.0848 11.9027C78.0848 11.48 77.7421 11.1374 77.3194 11.1374L77.2498 11.1374C76.8388 11.1558 76.5134 11.4914 76.5077 11.9027L76.5077 11.9027Z" id="Shape" fill="#FF9E23" stroke="none" />
                  <path d="M74.0434 14.1351L74.0434 35.7393C74.0522 36.1516 74.3793 36.4864 74.7914 36.5047L74.8668 36.5047C75.2904 36.5047 75.6347 36.1629 75.6379 35.7393L75.6379 14.1351C75.6348 13.7105 75.2914 13.3671 74.8668 13.3639L74.7914 13.3639C74.3784 13.3851 74.052 13.7217 74.0434 14.1351L74.0434 14.1351Z" id="Shape" fill="#FF9E23" stroke="none" />
                  <path d="M71.5734 16.3674L71.5734 37.9426C71.5795 38.3637 71.9177 38.7045 72.3387 38.7138L72.4141 38.7138C72.8387 38.7106 73.1821 38.3672 73.1853 37.9426L73.1853 16.3674C73.1853 15.9405 72.8409 15.5936 72.4141 15.5904L72.3387 15.5904C71.9168 15.6028 71.5794 15.9453 71.5734 16.3674L71.5734 16.3674Z" id="Shape" fill="#FF9E23" stroke="none" />
                  <path d="M70.7384 39.4038L70.7384 40.1807C70.7384 40.3953 70.6625 40.5784 70.5108 40.7301C70.3591 40.8818 70.176 40.9577 69.9614 40.9577L69.8803 40.9577C69.6657 40.9577 69.4826 40.8818 69.3309 40.7301C69.1792 40.5784 69.1033 40.3953 69.1033 40.1807L69.1033 18.5939C69.1033 18.3794 69.1792 18.1962 69.3309 18.0445C69.4826 17.8928 69.6657 17.8169 69.8803 17.8169L69.9614 17.8169C70.176 17.8169 70.3591 17.8928 70.5108 18.0445C70.6625 18.1962 70.7384 18.3794 70.7384 18.5939L70.7384 39.4038Z" id="Rectangle" fill="#FF9E23" fill-rule="evenodd" stroke="none" />
                  <path d="M65.9433 19.8521L65.9433 19.0694C65.9433 18.8532 66.0197 18.6687 66.1725 18.5159C66.3254 18.363 66.5099 18.2866 66.726 18.2866L66.8014 18.2866C67.0176 18.2866 67.2021 18.363 67.3549 18.5159C67.5077 18.6687 67.5842 18.8532 67.5842 19.0694L67.5842 40.6446C67.5842 40.8607 67.5077 41.0452 67.3549 41.1981C67.2021 41.3509 67.0176 41.4274 66.8014 41.4274L66.7637 41.4274L66.726 41.4274C66.5099 41.4274 66.3254 41.3509 66.1725 41.1981C66.0197 41.0452 65.9433 40.8607 65.9433 40.6446L65.9433 19.8521Z" id="Rectangle" fill="#FF9E23" fill-rule="evenodd" stroke="none" />
                  <path d="M62.7832 20.316L62.7832 19.5332C62.7832 19.3171 62.8597 19.1326 63.0125 18.9797C63.1653 18.8269 63.3498 18.7505 63.566 18.7505L63.653 18.7505C63.8691 18.7505 64.0536 18.8269 64.2065 18.9797C64.3593 19.1326 64.4357 19.3171 64.4357 19.5332L64.4357 41.1084C64.4357 41.3246 64.3593 41.5091 64.2065 41.6619C64.0536 41.8148 63.8691 41.8912 63.653 41.8912L63.6095 41.8912L63.566 41.8912C63.3498 41.8912 63.1653 41.8148 63.0125 41.6619C62.8597 41.5091 62.7832 41.3246 62.7832 41.1084L62.7832 20.316Z" id="Rectangle" fill="#FF9E23" fill-rule="evenodd" stroke="none" />
                  <path d="M59.6232 20.7799L59.6232 19.9971C59.6232 19.7809 59.6996 19.5964 59.8525 19.4436C60.0053 19.2908 60.1898 19.2143 60.406 19.2143L60.4987 19.2143C60.7149 19.2143 60.8994 19.2908 61.0522 19.4436C61.2051 19.5964 61.2815 19.7809 61.2815 19.9971L61.2815 41.5723C61.2815 41.7885 61.2051 41.973 61.0522 42.1258C60.8994 42.2787 60.7149 42.3551 60.4987 42.3551L60.4523 42.3551L60.406 42.3551C60.1898 42.3551 60.0053 42.2787 59.8525 42.1258C59.6996 41.973 59.6232 41.7885 59.6232 41.5723L59.6232 20.7799Z" id="Rectangle" fill="#FF9E23" fill-rule="evenodd" stroke="none" />
                  <path d="M56.4632 21.2553L56.4632 20.4667C56.4632 20.249 56.5402 20.0631 56.6941 19.9091C56.8481 19.7552 57.034 19.6782 57.2517 19.6782L57.3445 19.6782C57.5623 19.6782 57.7481 19.7552 57.9021 19.9091C58.0561 20.0631 58.1331 20.249 58.1331 20.4667L58.1331 42.0304C58.1331 42.2481 58.0561 42.434 57.9021 42.5879C57.7481 42.7419 57.5623 42.8189 57.3445 42.8189L57.2517 42.8189C57.034 42.8189 56.8481 42.7419 56.6941 42.5879C56.5402 42.434 56.4632 42.2481 56.4632 42.0304L56.4632 21.2553Z" id="Rectangle" fill="#FF9E23" fill-rule="evenodd" stroke="none" />
                  <path d="M53.3031 21.7191L53.3031 20.9306C53.3031 20.7128 53.3801 20.527 53.5341 20.373C53.6881 20.219 53.8739 20.142 54.0917 20.142L54.1961 20.142C54.4138 20.142 54.5997 20.219 54.7537 20.373C54.9076 20.527 54.9846 20.7128 54.9846 20.9306L54.9846 42.4942C54.9846 42.712 54.9076 42.8978 54.7537 43.0518C54.5997 43.2058 54.4138 43.2828 54.1961 43.2828L54.0917 43.2828C53.8739 43.2828 53.6881 43.2058 53.5341 43.0518C53.3801 42.8978 53.3031 42.712 53.3031 42.4942L53.3031 21.7191Z" id="Rectangle" fill="#FF9E23" fill-rule="evenodd" stroke="none" />
                  <path d="M50.1431 22.1946L50.1431 21.4003C50.1431 21.1809 50.2206 20.9937 50.3758 20.8386C50.5309 20.6835 50.7181 20.6059 50.9375 20.6059L51.036 20.6059C51.2554 20.6059 51.4426 20.6835 51.5977 20.8386C51.7528 20.9937 51.8304 21.1809 51.8304 21.4003L51.8304 42.9523C51.8304 43.1716 51.7528 43.3589 51.5977 43.514C51.4426 43.6691 51.2554 43.7467 51.036 43.7467L50.9867 43.7467L50.9375 43.7467C50.7181 43.7467 50.5309 43.6691 50.3758 43.514C50.2206 43.3589 50.1431 43.1716 50.1431 42.9523L50.1431 22.1946Z" id="Rectangle" fill="#FF9E23" fill-rule="evenodd" stroke="none" />
                  <path d="M46.9831 22.6585L46.9831 21.8641C46.9831 21.6447 47.0606 21.4575 47.2157 21.3024C47.3708 21.1473 47.5581 21.0697 47.7774 21.0697L47.8876 21.0697C48.1069 21.0697 48.2942 21.1473 48.4493 21.3024C48.6044 21.4575 48.6819 21.6447 48.6819 21.8641L48.6819 43.4161C48.6819 43.6355 48.6044 43.8227 48.4493 43.9778C48.2942 44.1329 48.1069 44.2105 47.8876 44.2105L47.8325 44.2105L47.7774 44.2105C47.5581 44.2105 47.3708 44.1329 47.2157 43.9778C47.0606 43.8227 46.9831 43.6355 46.9831 43.4161L46.9831 22.6585Z" id="Rectangle" fill="#FF9E23" fill-rule="evenodd" stroke="none" />
                  <path d="M45.5277 43.0856L45.5277 43.88C45.5277 44.0993 45.4502 44.2866 45.2951 44.4417C45.14 44.5968 44.9527 44.6743 44.7334 44.6743L44.6116 44.6743C44.3923 44.6743 44.205 44.5968 44.0499 44.4417C43.8948 44.2866 43.8172 44.0993 43.8172 43.88L43.8172 22.328C43.8172 22.1086 43.8948 21.9214 44.0499 21.7663C44.205 21.6112 44.3923 21.5336 44.6116 21.5336L44.6725 21.5336L44.7334 21.5336C44.9527 21.5336 45.14 21.6112 45.2951 21.7663C45.4502 21.9214 45.5277 22.1086 45.5277 22.328L45.5277 43.0856Z" id="Rectangle" fill="#FF9E23" fill-rule="evenodd" stroke="none" />
                  <path d="M40.6224 22.6411L40.6224 21.8467C40.6224 21.6274 40.6999 21.4401 40.8551 21.285C41.0102 21.1299 41.1974 21.0524 41.4167 21.0524L41.5269 21.0524C41.7463 21.0524 41.9335 21.1299 42.0886 21.285C42.2437 21.4401 42.3213 21.6274 42.3213 21.8467L42.3213 43.3988C42.3213 43.6181 42.2437 43.8053 42.0886 43.9604C41.9335 44.1156 41.7463 44.1931 41.5269 44.1931L41.4718 44.1931L41.4167 44.1931C41.1974 44.1931 41.0102 44.1156 40.8551 43.9604C40.6999 43.8053 40.6224 43.6181 40.6224 43.3988L40.6224 22.6411Z" id="Rectangle" fill="#FF9E23" fill-rule="evenodd" stroke="none" />
                  <path d="M37.4276 22.1598L37.4276 21.3655C37.4276 21.1461 37.5051 20.9589 37.6602 20.8038C37.8154 20.6487 38.0026 20.5711 38.2219 20.5711L38.3205 20.5711C38.5399 20.5711 38.7271 20.6487 38.8822 20.8038C39.0373 20.9589 39.1149 21.1461 39.1149 21.3655L39.1149 42.9175C39.1149 43.1368 39.0373 43.3241 38.8822 43.4792C38.7271 43.6343 38.5399 43.7118 38.3205 43.7118L38.2712 43.7118L38.2219 43.7118C38.0026 43.7118 37.8154 43.6343 37.6602 43.4792C37.5051 43.3241 37.4276 43.1368 37.4276 42.9175L37.4276 22.1598Z" id="Rectangle" fill="#FF9E23" fill-rule="evenodd" stroke="none" />
                  <path d="M34.2269 21.6728L34.2269 20.8842C34.2269 20.6665 34.3039 20.4806 34.4579 20.3266C34.6119 20.1726 34.7977 20.0957 35.0155 20.0957L35.1199 20.0957C35.3376 20.0957 35.5235 20.1726 35.6775 20.3266C35.8314 20.4806 35.9084 20.6665 35.9084 20.8842L35.9084 42.4478C35.9084 42.6656 35.8314 42.8515 35.6775 43.0054C35.5235 43.1594 35.3376 43.2364 35.1199 43.2364L35.0155 43.2364C34.7977 43.2364 34.6119 43.1594 34.4579 43.0054C34.3039 42.8515 34.2269 42.6656 34.2269 42.4478L34.2269 21.6728Z" id="Rectangle" fill="#FF9E23" fill-rule="evenodd" stroke="none" />
                  <path d="M31.0321 21.1915L31.0321 20.403C31.0321 20.1852 31.1091 19.9994 31.2631 19.8454C31.4171 19.6914 31.6029 19.6144 31.8207 19.6144L31.9135 19.6144C32.1312 19.6144 32.3171 19.6914 32.4711 19.8454C32.625 19.9994 32.702 20.1852 32.702 20.403L32.702 41.9666C32.702 42.1844 32.625 42.3702 32.4711 42.5242C32.3171 42.6782 32.1312 42.7552 31.9135 42.7552L31.8207 42.7552C31.6029 42.7552 31.4171 42.6782 31.2631 42.5242C31.1091 42.3702 31.0321 42.1844 31.0321 41.9666L31.0321 21.1915Z" id="Rectangle" fill="#FF9E23" fill-rule="evenodd" stroke="none" />
                  <path d="M27.8373 20.6987L27.8373 19.9159C27.8373 19.6998 27.9137 19.5153 28.0666 19.3624C28.2194 19.2096 28.4039 19.1331 28.6201 19.1331L28.7186 19.1331C28.9348 19.1331 29.1193 19.2096 29.2721 19.3624C29.425 19.5153 29.5014 19.6998 29.5014 19.9159L29.5014 41.4911C29.5014 41.7073 29.425 41.8918 29.2721 42.0446C29.1193 42.1975 28.9348 42.2739 28.7186 42.2739L28.6693 42.2739L28.6201 42.2739C28.4039 42.2739 28.2194 42.1975 28.0666 42.0446C27.9137 41.8918 27.8373 41.7073 27.8373 41.4911L27.8373 20.6987Z" id="Rectangle" fill="#FF9E23" fill-rule="evenodd" stroke="none" />
                  <path d="M24.6367 20.2232L24.6367 19.4404C24.6367 19.2243 24.7131 19.0398 24.866 18.8869C25.0188 18.7341 25.2033 18.6577 25.4194 18.6577L25.5064 18.6577C25.7226 18.6577 25.9071 18.7341 26.0599 18.8869C26.2128 19.0398 26.2892 19.2243 26.2892 19.4404L26.2892 41.0157C26.2892 41.2318 26.2128 41.4163 26.0599 41.5692C25.9071 41.722 25.7226 41.7984 25.5064 41.7984L25.4629 41.7984L25.4194 41.7984C25.2033 41.7984 25.0188 41.722 24.866 41.5692C24.7131 41.4163 24.6367 41.2318 24.6367 41.0157L24.6367 20.2232Z" id="Rectangle" fill="#FF9E23" fill-rule="evenodd" stroke="none" />
                  <path d="M21.4419 19.742L21.4419 18.9592C21.4419 18.743 21.5183 18.5585 21.6711 18.4057C21.824 18.2529 22.0085 18.1764 22.2246 18.1764L22.3 18.1764C22.5162 18.1764 22.7007 18.2529 22.8535 18.4057C23.0063 18.5585 23.0828 18.743 23.0828 18.9592L23.0828 40.5344C23.0828 40.7506 23.0063 40.9351 22.8535 41.0879C22.7007 41.2407 22.5162 41.3172 22.3 41.3172L22.2623 41.3172L22.2246 41.3172C22.0085 41.3172 21.824 41.2407 21.6711 41.0879C21.5183 40.9351 21.4419 40.7506 21.4419 40.5344L21.4419 19.742Z" id="Rectangle" fill="#FF9E23" fill-rule="evenodd" stroke="none" />
                  <path d="M19.8763 39.282L19.8763 40.059C19.8763 40.2735 19.8005 40.4567 19.6488 40.6084C19.4971 40.7601 19.3139 40.8359 19.0994 40.8359L19.0182 40.8359C18.8037 40.8359 18.6205 40.7601 18.4688 40.6084C18.3171 40.4567 18.2412 40.2735 18.2412 40.059L18.2412 18.4722C18.2412 18.2576 18.3171 18.0745 18.4688 17.9228C18.6205 17.771 18.8037 17.6952 19.0182 17.6952L19.0994 17.6952C19.3139 17.6952 19.4971 17.771 19.6488 17.9228C19.8005 18.0745 19.8763 18.2576 19.8763 18.4722L19.8763 39.282Z" id="Rectangle" fill="#FF9E23" fill-rule="evenodd" stroke="none" />
                  <path d="M15.9857 16.4138L15.9857 38.0064C15.9919 38.4275 16.3301 38.7682 16.7511 38.7775L16.8265 38.7775C17.2533 38.7775 17.6002 38.4332 17.6034 38.0064L17.6034 16.4138C17.6003 15.986 17.2542 15.64 16.8265 15.6368L16.7511 15.6368C16.3291 15.6492 15.9918 15.9917 15.9857 16.4138L15.9857 16.4138Z" id="Shape" fill="#FF9E23" stroke="none" />
                  <path d="M13.6664 14.3496L13.6664 35.9538C13.6723 36.3674 14.0011 36.7038 14.4144 36.7192L14.4898 36.7192C14.9144 36.716 15.2578 36.3727 15.261 35.9481L15.261 14.3496C15.2578 13.926 14.9134 13.5842 14.4898 13.5842L14.4144 13.5842C14.0011 13.5996 13.6723 13.9361 13.6664 14.3496L13.6664 14.3496Z" id="Shape" fill="#FF9E23" stroke="none" />
                  <path d="M11.4051 12.2912L11.4051 33.8839C11.4107 34.2931 11.7328 34.6279 12.1415 34.6492L12.2169 34.6492C12.6383 34.6461 12.9791 34.3053 12.9822 33.8839L12.9822 12.2912C12.9791 11.8699 12.6383 11.529 12.2169 11.5259L12.1415 11.5259C11.7328 11.5472 11.4107 11.882 11.4051 12.2912L11.4051 12.2912Z" id="Shape" fill="#FF9E23" stroke="none" />
                  <path d="M9.12064 10.2271L9.12064 31.8487C9.12598 32.2526 9.44217 32.584 9.84542 32.6083L9.92079 32.6083C10.3403 32.6083 10.6804 32.2682 10.6804 31.8487L10.6804 10.2271C10.6804 9.80759 10.3403 9.46751 9.92079 9.46751L9.84542 9.46751C9.44217 9.49179 9.126 9.82314 9.12064 10.2271L9.12064 10.2271Z" id="Shape" fill="#FF9E23" stroke="none" />
                  <path d="M6.84192 8.16869L6.84192 29.8251C6.84705 30.2237 7.15735 30.5517 7.55513 30.5788L7.62468 30.5788C8.04193 30.5789 8.38107 30.2423 8.38425 29.8251L8.38425 8.19769C8.38425 7.7782 8.04419 7.43813 7.62468 7.43813L7.55511 7.43813C7.16715 7.4669 6.86135 7.78015 6.84194 8.16871L6.84192 8.16869Z" id="Shape" fill="#FF9E23" stroke="none" />
                  <path d="M4.5632 6.10452L4.5632 27.7435C4.56506 28.136 4.86773 28.4613 5.259 28.4915L5.33438 28.4915C5.74748 28.4915 6.08237 28.1566 6.08237 27.7435L6.08235 6.10452C6.08235 5.69046 5.7484 5.35392 5.33438 5.35075L5.259 5.35075C4.8655 5.3811 4.56203 5.70985 4.5632 6.10452L4.5632 6.10452Z" id="Shape" fill="#FF9E23" stroke="none" />
                  <path d="M2.28452 4.04036L2.28452 25.691C2.28609 26.0781 2.5829 26.4001 2.96868 26.4331L3.03828 26.4331C3.45138 26.4331 3.78627 26.0983 3.78627 25.6852L3.78625 4.04036C3.78625 3.8425 3.70726 3.65285 3.56682 3.5135C3.42636 3.37415 3.23609 3.29663 3.03826 3.29819L2.9687 3.29819C2.58292 3.33121 2.28611 3.65318 2.28452 4.04036L2.28452 4.04036Z" id="Shape" fill="#FF9E23" stroke="none" />
                  <path d="M0.742173 24.3805C1.15205 24.3805 1.48433 24.0482 1.48433 23.6383L1.48435 1.99358C1.48378 1.58406 1.15167 1.25241 0.742173 1.25241C0.332662 1.25241 0.000548539 1.58408 0 1.99358L0 23.65C0.00941363 24.054 0.338059 24.3775 0.74219 24.3805L0.742173 24.3805Z" id="Shape" fill="#FF9E23" stroke="none" />
                </g>
              </g>
            </g>
            <path d="M186.738 251.156C204.254 261.274 232.66 261.274 250.182 251.156C267.704 241.038 267.699 224.647 250.182 214.529C232.666 204.411 204.254 204.417 186.738 214.529C169.221 224.641 169.216 241.044 186.738 251.156L186.738 251.156Z" id="Shape" fill="#FF9E23" stroke="none" />
            <path d="M188.263 250.281C204.938 259.906 231.976 259.906 248.651 250.281C265.327 240.656 265.333 225.041 248.651 215.41C231.97 205.779 204.933 205.785 188.257 215.41C171.581 225.035 171.587 240.627 188.263 250.281L188.263 250.281Z" id="Shape" fill="#FFB43F" stroke="none" />
            <path d="M193.446 247.283C207.258 255.261 229.656 255.261 243.468 247.283C257.279 239.305 257.285 226.38 243.468 218.402C229.651 210.424 207.264 210.429 193.446 218.402C179.629 226.375 179.635 239.31 193.446 247.283L193.446 247.283Z" id="Shape" fill="#E68913" stroke="none" />
            <path d="M193.446 220.263C207.264 212.285 229.656 212.285 243.468 220.263C249.968 224.009 253.406 228.862 253.789 233.773C253.406 238.684 249.968 243.531 243.468 247.283C229.656 255.261 207.258 255.261 193.446 247.283C186.947 243.531 183.508 238.684 183.126 233.773C183.508 228.862 186.947 224.015 193.446 220.263L193.446 220.263Z" id="Shape" fill="#FF9E23" stroke="none" />
            <path d="M201.199 221.846L202.683 222.698C215.439 216.001 233.611 224.855 223.487 234.649L232.08 239.612C233.16 238.736 234.006 237.606 234.544 236.324C235.124 234.846 237.478 233.837 240.087 234.005C242.598 234.167 244.471 234.556 244.627 235.924C244.662 236.499 244.608 237.076 244.465 237.635C243.181 240.099 241.185 242.119 238.736 243.433L240.441 243.184C240.76 243.369 240.627 244.674 240.627 244.923C240.6 245.215 240.418 245.47 240.151 245.59L238.307 246.68C237.58 247.054 236.716 247.054 235.988 246.68L234.533 245.845C227.291 248.744 219.962 248.744 214.291 245.474C208.941 242.381 208.524 238.388 213.039 233.495L205.646 229.227C205.256 229.661 204.944 230.16 204.724 230.7C204.092 232.15 201.686 233.112 199.105 232.95C195.771 232.741 193.522 230.63 194.658 228.787C195.493 227.447 196.833 226.363 198.508 225.197L196.972 224.305C196.718 224.197 196.549 223.954 196.537 223.678C196.537 223.464 196.369 222.13 196.653 221.968L199.111 221.858C199.766 221.523 200.54 221.519 201.199 221.846L201.199 221.846ZM209.647 226.659L215.938 230.294C217.961 227.87 214.14 225.4 209.664 226.659L209.647 226.659ZM227.441 241.786L220.791 237.942C218.414 240.87 223.151 243.282 227.441 241.786L227.441 241.786Z" id="Shape" fill="#E68913" fill-rule="evenodd" stroke="none" />
            <path d="M201.199 220.449L202.683 221.307C215.439 214.61 233.611 223.464 223.487 233.257L232.08 238.22C233.158 237.343 234.005 236.214 234.544 234.933C235.124 233.454 237.478 232.445 240.087 232.613C243.149 232.811 245.265 234.527 244.465 236.243C243.181 238.707 241.185 240.727 238.736 242.041L240.151 242.859C240.439 242.953 240.635 243.222 240.635 243.526C240.635 243.829 240.439 244.098 240.151 244.192L238.307 245.265C237.578 245.634 236.717 245.634 235.988 245.265L234.521 244.419C227.279 247.318 219.95 247.318 214.279 244.047C208.93 240.955 208.512 236.962 213.027 232.068L205.634 227.801C205.244 228.235 204.932 228.733 204.712 229.274C204.08 230.723 201.674 231.686 199.094 231.523C195.76 231.309 193.597 229.355 194.734 227.528C195.722 226.034 197.002 224.754 198.497 223.765L196.96 222.878C196.38 222.542 196.38 221.997 196.96 221.666L199.1 220.426C199.764 220.105 200.541 220.113 201.199 220.449L201.199 220.449ZM209.647 225.267L215.938 228.903C217.961 226.473 214.14 224.009 209.664 225.267L209.647 225.267ZM227.424 240.406L220.791 236.568C218.414 239.467 223.151 241.891 227.441 240.406L227.424 240.406Z" id="Shape" fill="#FFB43F" fill-rule="evenodd" stroke="none" />
            <path d="M189.225 246.796C206.748 256.908 235.147 256.908 252.67 246.796C260.909 242.036 265.269 235.889 265.762 229.662C265.762 229.291 265.808 217.405 265.808 217.034C265.837 210.383 261.454 215.236 252.67 210.163C235.153 200.051 206.748 200.051 189.225 210.163C180.528 215.19 176.144 210.261 176.086 216.848C176.086 217.219 176.086 229.094 176.121 229.459C176.527 235.756 180.905 241.983 189.225 246.796L189.225 246.796Z" id="Shape" fill="#EF8809" stroke="none" />
            <g id="Mask-group" transform="translate(176.08646 202.57855)">
              <path d="M13.1388 44.2173C30.6611 54.3294 59.0608 54.3294 76.5831 44.2173C84.8223 39.457 89.1826 33.3108 89.6755 27.0835C89.6755 26.7125 89.7218 14.8261 89.7218 14.455C89.7508 7.80443 85.3674 12.6575 76.5831 7.5841C59.0666 -2.52802 30.6611 -2.52802 13.1388 7.5841C4.44145 12.6112 0.0579859 7.68267 0 14.2695C0 14.6405 0 26.5153 0.034788 26.8806C0.440689 33.1775 4.81835 39.4048 13.1388 44.2173L13.1388 44.2173Z" id="Shape" fill="none" stroke="none" />
              <g clip-path="url(#mask_3)">
                <g id="Group" transform="translate(0.01739502 11.485291)">
                  <path d="M89.6001 23.1417C90.0109 23.1386 90.3423 22.8046 90.3423 22.3938L90.3422 0.743181C90.3426 0.477795 90.2012 0.232403 89.9715 0.099604C89.7417 -0.0331954 89.4585 -0.0331954 89.2287 0.099604C88.9989 0.232403 88.8575 0.477777 88.8579 0.743181L88.8579 22.3938C88.8563 22.5916 88.9338 22.7819 89.0732 22.9223C89.2126 23.0628 89.4022 23.1417 89.6001 23.1417L89.6001 23.1417Z" id="Shape" fill="#FF9E23" stroke="none" />
                  <path d="M86.3878 2.9755L86.3878 24.6203C86.3894 25.0075 86.6862 25.3295 87.072 25.3625L87.1358 25.3625C87.5489 25.3625 87.8838 25.0276 87.8838 24.6145L87.8838 2.9755C87.8885 2.77413 87.8118 2.57938 87.671 2.43533C87.5302 2.29126 87.3373 2.21008 87.1358 2.21013L87.0662 2.21013C86.6738 2.24665 86.377 2.58147 86.3878 2.9755L86.3878 2.9755Z" id="Shape" fill="#FF9E23" stroke="none" />
                  <path d="M83.9178 5.20202L83.9178 26.841C83.9227 27.2344 84.2271 27.559 84.6194 27.589L84.689 27.589C85.1053 27.589 85.4427 27.2515 85.4427 26.8352L85.4427 5.20202C85.4395 4.78799 85.103 4.45404 84.689 4.45406L84.6194 4.45404C84.2271 4.48407 83.9227 4.80864 83.9178 5.20203L83.9178 5.20202Z" id="Shape" fill="#FF9E23" stroke="none" />
                  <path d="M81.4478 7.42854L81.4478 29.0617C81.4556 29.4593 81.7644 29.7857 82.1609 29.8155L82.2363 29.8155C82.6513 29.8123 82.9869 29.4767 82.9901 29.0617L82.9901 7.42854C82.987 7.01358 82.6513 6.67794 82.2363 6.67477L82.161 6.67477C81.7644 6.70459 81.4556 7.03099 81.4478 7.42854L81.4478 7.42854Z" id="Shape" fill="#FF9E23" stroke="none" />
                  <path d="M78.9835 9.66664L78.9835 31.2882C78.986 31.6934 79.3038 32.0263 79.7083 32.0478L79.7779 32.0478C80.1974 32.0478 80.5374 31.7077 80.5374 31.2882L80.5374 9.66664C80.5374 9.24715 80.1974 8.90707 79.7779 8.90707L79.7083 8.90707C79.3038 8.92856 78.986 9.26154 78.9835 9.66664L78.9835 9.66664Z" id="Shape" fill="#FF9E23" stroke="none" />
                  <path d="M76.5135 11.899L76.5135 33.5206C76.5258 33.9361 76.8631 34.2683 77.2788 34.2743L77.3542 34.2743C77.7598 34.2561 78.0818 33.9265 78.0906 33.5206L78.0906 11.899C78.0874 11.4776 77.7466 11.1368 77.3252 11.1336L77.2788 11.1336C76.8574 11.1368 76.5166 11.4776 76.5135 11.899L76.5135 11.899Z" id="Shape" fill="#FF9E23" stroke="none" />
                  <path d="M74.0434 14.1313L74.0434 35.7355C74.0495 36.1512 74.3816 36.4885 74.7972 36.5009L74.8726 36.5009C75.2962 36.4977 75.638 36.1534 75.6379 35.7297L75.6379 14.1313C75.6379 13.7086 75.2953 13.3659 74.8726 13.3659L74.7972 13.3659C74.3816 13.3783 74.0495 13.7156 74.0434 14.1313L74.0434 14.1313Z" id="Shape" fill="#FF9E23" stroke="none" />
                  <path d="M71.5734 16.3636L71.5734 37.9562C71.5823 38.3771 71.918 38.7179 72.3387 38.7332L72.4141 38.7332C72.8432 38.7332 73.1911 38.3853 73.1911 37.9562L73.1911 16.3636C73.1879 15.9368 72.841 15.5925 72.4141 15.5925L72.3387 15.5925C71.919 15.6047 71.5825 15.9438 71.5734 16.3636L71.5734 16.3636Z" id="Shape" fill="#FF9E23" stroke="none" />
                  <path d="M70.7384 39.4058L70.7384 40.1827C70.7384 40.3973 70.6626 40.5804 70.5109 40.7321C70.3592 40.8838 70.176 40.9597 69.9615 40.9597L69.8803 40.9597C69.6657 40.9597 69.4826 40.8838 69.3309 40.7321C69.1792 40.5804 69.1033 40.3973 69.1033 40.1827L69.1033 18.5959C69.1033 18.3814 69.1792 18.1982 69.3309 18.0465C69.4826 17.8948 69.6657 17.8189 69.8803 17.8189L69.9615 17.8189C70.176 17.8189 70.3592 17.8948 70.5109 18.0465C70.6626 18.1982 70.7384 18.3814 70.7384 18.5959L70.7384 39.4058Z" id="Rectangle" fill="#FF9E23" fill-rule="evenodd" stroke="none" />
                  <path d="M65.9433 19.8484L65.9433 19.0656C65.9433 18.8494 66.0197 18.6649 66.1726 18.5121C66.3254 18.3593 66.5099 18.2828 66.7261 18.2828L66.8014 18.2828C67.0176 18.2828 67.2021 18.3593 67.3549 18.5121C67.5078 18.6649 67.5842 18.8494 67.5842 19.0656L67.5842 40.6408C67.5842 40.857 67.5078 41.0415 67.3549 41.1943C67.2021 41.3472 67.0176 41.4236 66.8014 41.4236L66.7637 41.4236L66.7261 41.4236C66.5099 41.4236 66.3254 41.3472 66.1726 41.1943C66.0197 41.0415 65.9433 40.857 65.9433 40.6408L65.9433 19.8484Z" id="Rectangle" fill="#FF9E23" fill-rule="evenodd" stroke="none" />
                  <path d="M62.7833 20.3122L62.7833 19.5294C62.7833 19.3133 62.8597 19.1288 63.0125 18.976C63.1654 18.8231 63.3499 18.7467 63.566 18.7467L63.653 18.7467C63.8692 18.7467 64.0536 18.8231 64.2065 18.976C64.3593 19.1288 64.4358 19.3133 64.4358 19.5294L64.4358 41.1047C64.4358 41.3208 64.3593 41.5053 64.2065 41.6582C64.0536 41.811 63.8692 41.8874 63.653 41.8874L63.6095 41.8874L63.566 41.8874C63.3499 41.8874 63.1654 41.811 63.0125 41.6582C62.8597 41.5053 62.7833 41.3208 62.7833 41.1047L62.7833 20.3122Z" id="Rectangle" fill="#FF9E23" fill-rule="evenodd" stroke="none" />
                  <path d="M59.6232 20.7761L59.6232 19.9933C59.6232 19.7772 59.6996 19.5927 59.8525 19.4398C60.0053 19.287 60.1898 19.2106 60.406 19.2106L60.5045 19.2106C60.7207 19.2106 60.9052 19.287 61.058 19.4398C61.2109 19.5927 61.2873 19.7772 61.2873 19.9933L61.2873 41.5685C61.2873 41.7847 61.2109 41.9692 61.058 42.122C60.9052 42.2749 60.7207 42.3513 60.5045 42.3513L60.4553 42.3513L60.406 42.3513C60.1898 42.3513 60.0053 42.2749 59.8525 42.122C59.6996 41.9692 59.6232 41.7847 59.6232 41.5685L59.6232 20.7761Z" id="Rectangle" fill="#FF9E23" fill-rule="evenodd" stroke="none" />
                  <path d="M56.4632 21.2515L56.4632 20.463C56.4632 20.2452 56.5402 20.0593 56.6941 19.9054C56.8481 19.7514 57.034 19.6744 57.2517 19.6744L57.3445 19.6744C57.5623 19.6744 57.7481 19.7514 57.9021 19.9054C58.0561 20.0593 58.1331 20.2452 58.1331 20.463L58.1331 42.0266C58.1331 42.2443 58.0561 42.4302 57.9021 42.5842C57.7481 42.7382 57.5623 42.8151 57.3445 42.8151L57.2517 42.8151C57.034 42.8151 56.8481 42.7382 56.6941 42.5842C56.5402 42.4302 56.4632 42.2443 56.4632 42.0266L56.4632 21.2515Z" id="Rectangle" fill="#FF9E23" fill-rule="evenodd" stroke="none" />
                  <path d="M53.3031 21.7154L53.3031 20.9268C53.3031 20.7091 53.3801 20.5232 53.5341 20.3692C53.6881 20.2153 53.874 20.1383 54.0917 20.1383L54.1961 20.1383C54.4138 20.1383 54.5997 20.2153 54.7537 20.3692C54.9076 20.5232 54.9846 20.7091 54.9846 20.9268L54.9846 42.4905C54.9846 42.7082 54.9076 42.8941 54.7537 43.048C54.5997 43.202 54.4138 43.279 54.1961 43.279L54.0917 43.279C53.874 43.279 53.6881 43.202 53.5341 43.048C53.3801 42.8941 53.3031 42.7082 53.3031 42.4905L53.3031 21.7154Z" id="Rectangle" fill="#FF9E23" fill-rule="evenodd" stroke="none" />
                  <path d="M50.1431 22.1908L50.1431 21.3965C50.1431 21.1771 50.2207 20.9899 50.3758 20.8348C50.5309 20.6797 50.7181 20.6021 50.9375 20.6021L51.0361 20.6021C51.2554 20.6021 51.4426 20.6797 51.5978 20.8348C51.7529 20.9899 51.8304 21.1771 51.8304 21.3965L51.8304 42.9485C51.8304 43.1679 51.7529 43.3551 51.5978 43.5102C51.4426 43.6653 51.2554 43.7429 51.0361 43.7429L50.9868 43.7429L50.9375 43.7429C50.7181 43.7429 50.5309 43.6653 50.3758 43.5102C50.2207 43.3551 50.1431 43.1679 50.1431 42.9485L50.1431 22.1908Z" id="Rectangle" fill="#FF9E23" fill-rule="evenodd" stroke="none" />
                  <path d="M46.9831 22.6547L46.9831 21.8603C46.9831 21.641 47.0606 21.4537 47.2157 21.2986C47.3708 21.1435 47.5581 21.066 47.7774 21.066L47.8876 21.066C48.1069 21.066 48.2942 21.1435 48.4493 21.2986C48.6044 21.4537 48.6819 21.641 48.6819 21.8603L48.6819 43.4124C48.6819 43.6317 48.6044 43.8189 48.4493 43.9741C48.2942 44.1292 48.1069 44.2067 47.8876 44.2067L47.8325 44.2067L47.7774 44.2067C47.5581 44.2067 47.3708 44.1292 47.2157 43.9741C47.0606 43.8189 46.9831 43.6317 46.9831 43.4124L46.9831 22.6547Z" id="Rectangle" fill="#FF9E23" fill-rule="evenodd" stroke="none" />
                  <path d="M45.5335 43.0818L45.5335 43.8762C45.5335 44.0956 45.456 44.2828 45.3009 44.4379C45.1458 44.593 44.9585 44.6706 44.7392 44.6706L44.6174 44.6706C44.3981 44.6706 44.2108 44.593 44.0557 44.4379C43.9006 44.2828 43.823 44.0956 43.823 43.8762L43.823 22.3242C43.823 22.1048 43.9006 21.9176 44.0557 21.7625C44.2108 21.6074 44.3981 21.5298 44.6174 21.5298L44.6783 21.5298L44.7392 21.5298C44.9585 21.5298 45.1458 21.6074 45.3009 21.7625C45.456 21.9176 45.5335 22.1048 45.5335 22.3242L45.5335 43.0818Z" id="Rectangle" fill="#FF9E23" fill-rule="evenodd" stroke="none" />
                  <path d="M40.6282 22.6373L40.6282 21.8429C40.6282 21.6236 40.7058 21.4363 40.8609 21.2812C41.016 21.1261 41.2032 21.0486 41.4226 21.0486L41.5327 21.0486C41.7521 21.0486 41.9393 21.1261 42.0944 21.2812C42.2495 21.4363 42.3271 21.6236 42.3271 21.8429L42.3271 43.395C42.3271 43.6143 42.2495 43.8015 42.0944 43.9566C41.9393 44.1118 41.7521 44.1893 41.5327 44.1893L41.4776 44.1893L41.4226 44.1893C41.2032 44.1893 41.016 44.1118 40.8609 43.9566C40.7058 43.8015 40.6282 43.6143 40.6282 43.395L40.6282 22.6373Z" id="Rectangle" fill="#FF9E23" fill-rule="evenodd" stroke="none" />
                  <path d="M37.4276 22.1618L37.4276 21.3675C37.4276 21.1481 37.5051 20.9609 37.6602 20.8058C37.8154 20.6507 38.0026 20.5731 38.2219 20.5731L38.3205 20.5731C38.5399 20.5731 38.7271 20.6507 38.8822 20.8058C39.0373 20.9609 39.1149 21.1481 39.1149 21.3675L39.1149 42.9195C39.1149 43.1389 39.0373 43.3261 38.8822 43.4812C38.7271 43.6363 38.5399 43.7139 38.3205 43.7139L38.2712 43.7139L38.2219 43.7139C38.0026 43.7139 37.8154 43.6363 37.6602 43.4812C37.5051 43.3261 37.4276 43.1389 37.4276 42.9195L37.4276 22.1618Z" id="Rectangle" fill="#FF9E23" fill-rule="evenodd" stroke="none" />
                  <path d="M34.2328 21.669L34.2328 20.8804C34.2328 20.6627 34.3098 20.4768 34.4637 20.3229C34.6177 20.1689 34.8036 20.0919 35.0213 20.0919L35.1257 20.0919C35.3435 20.0919 35.5293 20.1689 35.6833 20.3229C35.8373 20.4768 35.9143 20.6627 35.9143 20.8804L35.9143 42.4441C35.9143 42.6618 35.8373 42.8477 35.6833 43.0017C35.5293 43.1556 35.3435 43.2326 35.1257 43.2326L35.0213 43.2326C34.8036 43.2326 34.6177 43.1556 34.4637 43.0017C34.3098 42.8477 34.2328 42.6618 34.2328 42.4441L34.2328 21.669Z" id="Rectangle" fill="#FF9E23" fill-rule="evenodd" stroke="none" />
                  <path d="M31.0321 21.1877L31.0321 20.3992C31.0321 20.1814 31.1091 19.9956 31.2631 19.8416C31.4171 19.6876 31.6029 19.6106 31.8207 19.6106L31.9135 19.6106C32.1312 19.6106 32.3171 19.6876 32.4711 19.8416C32.625 19.9956 32.702 20.1814 32.702 20.3992L32.702 41.9628C32.702 42.1806 32.625 42.3664 32.4711 42.5204C32.3171 42.6744 32.1312 42.7514 31.9135 42.7514L31.8207 42.7514C31.6029 42.7514 31.4171 42.6744 31.2631 42.5204C31.1091 42.3664 31.0321 42.1806 31.0321 41.9628L31.0321 21.1877Z" id="Rectangle" fill="#FF9E23" fill-rule="evenodd" stroke="none" />
                  <path d="M27.8373 20.7007L27.8373 19.9179C27.8373 19.7018 27.9137 19.5173 28.0666 19.3644C28.2194 19.2116 28.4039 19.1352 28.6201 19.1352L28.7186 19.1352C28.9348 19.1352 29.1193 19.2116 29.2721 19.3644C29.425 19.5173 29.5014 19.7018 29.5014 19.9179L29.5014 41.4932C29.5014 41.7093 29.425 41.8938 29.2721 42.0466C29.1193 42.1995 28.9348 42.2759 28.7186 42.2759L28.6694 42.2759L28.6201 42.2759C28.4039 42.2759 28.2194 42.1995 28.0666 42.0466C27.9137 41.8938 27.8373 41.7093 27.8373 41.4932L27.8373 20.7007Z" id="Rectangle" fill="#FF9E23" fill-rule="evenodd" stroke="none" />
                  <path d="M24.6425 20.2194L24.6425 19.4367C24.6425 19.2205 24.7189 19.036 24.8718 18.8832C25.0246 18.7303 25.2091 18.6539 25.4252 18.6539L25.5122 18.6539C25.7284 18.6539 25.9129 18.7303 26.0657 18.8832C26.2186 19.036 26.295 19.2205 26.295 19.4367L26.295 41.0119C26.295 41.228 26.2186 41.4125 26.0657 41.5654C25.9129 41.7182 25.7284 41.7946 25.5122 41.7946L25.4687 41.7946L25.4252 41.7946C25.2091 41.7946 25.0246 41.7182 24.8718 41.5654C24.7189 41.4125 24.6425 41.228 24.6425 41.0119L24.6425 20.2194Z" id="Rectangle" fill="#FF9E23" fill-rule="evenodd" stroke="none" />
                  <path d="M21.4419 19.7382L21.4419 18.9554C21.4419 18.7393 21.5183 18.5548 21.6711 18.4019C21.824 18.2491 22.0085 18.1727 22.2246 18.1727L22.3 18.1727C22.5162 18.1727 22.7007 18.2491 22.8535 18.4019C23.0063 18.5548 23.0828 18.7393 23.0828 18.9554L23.0828 40.5306C23.0828 40.7468 23.0063 40.9313 22.8535 41.0841C22.7007 41.237 22.5162 41.3134 22.3 41.3134L22.2623 41.3134L22.2246 41.3134C22.0085 41.3134 21.824 41.237 21.6711 41.0841C21.5183 40.9313 21.4419 40.7468 21.4419 40.5306L21.4419 19.7382Z" id="Rectangle" fill="#FF9E23" fill-rule="evenodd" stroke="none" />
                  <path d="M19.8763 39.2783L19.8763 40.0552C19.8763 40.2698 19.8005 40.4529 19.6487 40.6046C19.497 40.7563 19.3139 40.8322 19.0994 40.8322L19.0182 40.8322C18.8036 40.8322 18.6205 40.7563 18.4688 40.6046C18.3171 40.4529 18.2412 40.2698 18.2412 40.0552L18.2412 18.4684C18.2412 18.2538 18.3171 18.0707 18.4688 17.919C18.6205 17.7673 18.8036 17.6914 19.0182 17.6914L19.0994 17.6914C19.3139 17.6914 19.497 17.7673 19.6487 17.919C19.8005 18.0707 19.8763 18.2538 19.8763 18.4684L19.8763 39.2783Z" id="Rectangle" fill="#FF9E23" fill-rule="evenodd" stroke="none" />
                  <path d="M15.9625 16.41L15.9625 38.0026C15.9715 38.4235 16.3072 38.7643 16.7279 38.7796L16.8033 38.7796C17.2324 38.7795 17.5802 38.4317 17.5802 38.0026L17.5802 16.41C17.5771 15.9832 17.2301 15.6388 16.8033 15.6389L16.7279 15.6388C16.3081 15.6511 15.9716 15.9902 15.9625 16.41L15.9625 16.41Z" id="Shape" fill="#FF9E23" stroke="none" />
                  <path d="M13.6838 14.3516L13.6838 35.95C13.6897 36.3668 14.0211 36.7058 14.4376 36.7212L14.513 36.7212C14.9376 36.718 15.281 36.3746 15.2841 35.95L15.2841 14.3516C15.281 13.9271 14.9376 13.5836 14.513 13.5805L14.4376 13.5805C14.0211 13.5959 13.6897 13.9349 13.6838 14.3516L13.6838 14.3516Z" id="Shape" fill="#FF9E23" stroke="none" />
                  <path d="M11.4051 12.2874L11.4051 33.8974C11.4107 34.3067 11.7328 34.6415 12.1415 34.6628L12.2169 34.6628C12.6396 34.6628 12.9822 34.3201 12.9822 33.8974L12.9822 12.2874C12.9822 11.8647 12.6396 11.5221 12.2169 11.5221L12.1415 11.5221C11.7328 11.5434 11.4107 11.8782 11.4051 12.2874L11.4051 12.2874Z" id="Shape" fill="#FF9E23" stroke="none" />
                  <path d="M9.1264 10.2233L9.1264 31.8449C9.13175 32.2488 9.44794 32.5802 9.85118 32.6045L9.92656 32.6045C10.3461 32.6045 10.6861 32.2644 10.6861 31.8449L10.6861 10.2233C10.6861 9.80381 10.3461 9.46373 9.92656 9.46373L9.85118 9.46373C9.44794 9.48801 9.13177 9.81936 9.1264 10.2233L9.1264 10.2233Z" id="Shape" fill="#FF9E23" stroke="none" />
                  <path d="M6.84192 8.1649L6.84192 29.7923C6.84705 30.191 7.15735 30.5189 7.55513 30.5461L7.63049 30.5461C8.04679 30.5461 8.38425 30.2086 8.38425 29.7923L8.38425 8.1649C8.38425 7.74764 8.0477 7.40852 7.63047 7.40533L7.55511 7.40533C7.15515 7.43266 6.84404 7.76399 6.84194 8.1649L6.84192 8.1649Z" id="Shape" fill="#FF9E23" stroke="none" />
                  <path d="M4.5632 6.10073L4.5632 27.7223C4.56807 28.1157 4.87251 28.4403 5.26478 28.4703L5.33436 28.4703C5.74934 28.4671 6.08495 28.1315 6.08812 27.7165L6.08812 6.10073C6.08494 5.68671 5.7484 5.35275 5.33436 5.35277L5.26478 5.35275C4.87251 5.38278 4.56807 5.70736 4.5632 6.10075L4.5632 6.10073Z" id="Shape" fill="#FF9E23" stroke="none" />
                  <path d="M2.28452 4.04238L2.28452 25.6872C2.28609 26.0744 2.5829 26.3963 2.96868 26.4294L3.06148 26.4293C3.47458 26.4294 3.80947 26.0945 3.80947 25.6814L3.80945 4.04238C3.80947 3.62928 3.47458 3.2944 3.06148 3.2944L2.9919 3.2944C2.59474 3.31599 2.28393 3.64464 2.28452 4.0424L2.28452 4.04238Z" id="Shape" fill="#FF9E23" stroke="none" />
                  <path d="M0.742173 24.3768C1.15076 24.3736 1.4812 24.0432 1.48435 23.6346L1.48435 1.97821C1.48378 1.5687 1.15167 1.23705 0.742173 1.23705C0.332662 1.23705 0.000548539 1.56872 0 1.97821L0 23.6636C0.0155714 24.0621 0.343332 24.3771 0.742173 24.3768L0.742173 24.3768Z" id="Shape" fill="#FF9E23" stroke="none" />
                </g>
              </g>
            </g>
            <path d="M189.225 235.286C206.748 245.398 235.147 245.398 252.669 235.286C270.192 225.174 270.192 208.771 252.669 198.653C235.147 188.535 206.748 188.541 189.225 198.653C171.703 208.765 171.709 225.168 189.225 235.286L189.225 235.286Z" id="Shape" fill="#FF9E23" stroke="none" />
            <path d="M190.762 234.405C207.438 244.036 234.48 244.036 251.156 234.405C267.832 224.774 267.832 209.165 251.156 199.534C234.48 189.904 207.443 189.909 190.762 199.534C174.08 209.16 174.074 224.774 190.762 234.405L190.762 234.405Z" id="Shape" fill="#FFB43F" stroke="none" />
            <path d="M195.934 231.413C209.751 239.386 232.144 239.386 245.961 231.413C259.778 223.441 259.772 210.505 245.961 202.532C232.15 194.56 209.751 194.554 195.94 202.532C182.128 210.511 182.122 223.435 195.934 231.413L195.934 231.413Z" id="Shape" fill="#E68913" stroke="none" />
            <path d="M195.94 204.388C209.751 196.409 232.15 196.409 245.961 204.388C252.455 208.139 255.899 212.986 256.282 217.897C255.899 222.809 252.455 227.662 245.961 231.413C232.144 239.386 209.751 239.386 195.934 231.413C189.44 227.662 186.001 222.814 185.613 217.897C186.001 212.986 189.44 208.156 195.94 204.388L195.94 204.388Z" id="Shape" fill="#FF9E23" stroke="none" />
            <path d="M203.709 205.971L205.194 206.829C217.95 200.126 236.116 208.98 225.992 218.779L234.591 223.742C235.668 222.861 236.513 221.731 237.055 220.449C237.635 218.97 239.989 217.961 242.592 218.129C245.103 218.292 246.981 218.68 247.132 220.049C247.169 220.623 247.116 221.201 246.976 221.759C245.689 224.223 243.691 226.244 241.241 227.557L242.946 227.314C243.265 227.494 243.137 228.798 243.137 229.053C243.109 229.346 242.925 229.601 242.656 229.72L240.795 230.793C240.067 231.167 239.203 231.167 238.475 230.793L237.008 229.946C229.766 232.845 222.437 232.845 216.773 229.581C211.415 226.489 210.998 222.495 215.52 217.602L208.156 213.34C207.771 213.777 207.459 214.275 207.235 214.813C206.603 216.268 204.202 217.225 201.622 217.063C198.282 216.854 196.032 214.743 197.169 212.899C198.004 211.56 199.349 210.476 201.019 209.31L199.459 208.423C199.205 208.313 199.037 208.068 199.024 207.791C199.024 207.577 198.862 206.243 199.14 206.081L201.599 205.971C202.261 205.632 203.046 205.632 203.709 205.971L203.709 205.971ZM212.151 210.789L218.448 214.419C220.449 211.989 216.633 209.525 212.151 210.789L212.151 210.789ZM229.935 225.928L223.284 222.072C220.913 224.971 225.638 227.407 229.935 225.928L229.935 225.928Z" id="Shape" fill="#E68913" fill-rule="evenodd" stroke="none" />
            <path d="M203.709 204.579L205.194 205.437C217.95 198.734 236.116 207.588 225.992 217.387L234.591 222.351C235.668 221.469 236.513 220.339 237.055 219.057C237.635 217.579 239.989 216.57 242.592 216.738C245.654 216.935 247.776 218.651 246.976 220.368C245.689 222.832 243.691 224.852 241.241 226.166L242.656 226.983C242.944 227.078 243.139 227.347 243.139 227.65C243.139 227.954 242.944 228.223 242.656 228.317L240.795 229.39C240.067 229.764 239.203 229.764 238.475 229.39L237.008 228.543C229.766 231.442 222.438 231.442 216.773 228.178C211.415 225.085 210.998 221.09 215.52 216.193L208.156 211.949C207.771 212.386 207.459 212.883 207.235 213.421C206.603 214.871 204.202 215.833 201.622 215.671C198.282 215.462 196.125 213.502 197.262 211.682C198.246 210.186 199.524 208.905 201.019 207.919L199.459 207.032C199.199 206.942 199.024 206.698 199.024 206.423C199.024 206.148 199.199 205.903 199.459 205.814L201.599 204.579C202.261 204.24 203.046 204.24 203.709 204.579L203.709 204.579ZM212.151 209.391L218.448 213.027C220.449 210.598 216.633 208.156 212.151 209.391L212.151 209.391ZM229.935 224.536L223.284 220.692C220.913 223.603 225.638 226.015 229.935 224.536L229.935 224.536Z" id="Shape" fill="#FFB43F" fill-rule="evenodd" stroke="none" />
          </g>
        </g>
      </g>
    </g>
  </g>
</svg>