<?xml version="1.0" encoding="utf-8"?>
<svg width="2235px" height="1473px" viewBox="0 0 2235 1473" version="1.1" xmlns:xlink="http://www.w3.org/1999/xlink" xmlns="http://www.w3.org/2000/svg">
  <g id="pay">
    <g id="Layer_2">
      <g id="Слой_2">
        <path d="M811.865 1422.55L811.865 1443.65C811.842 1450 806.701 1455.14 800.353 1455.16L369.972 1455.16C363.62 1455.14 358.474 1450 358.452 1443.65L358.452 1422.55C358.474 1416.2 363.62 1411.06 369.971 1411.04L800.353 1411.04C806.701 1411.06 811.842 1416.2 811.865 1422.55L811.865 1422.55Z" id="Shape" fill="#DDC558" stroke="none" />
        <path d="M882.905 1378.44L882.905 1399.54C882.887 1405.88 877.747 1411.02 871.401 1411.04L441.02 1411.04C434.673 1411.02 429.531 1405.88 429.508 1399.54L429.508 1378.44C429.527 1372.09 434.67 1366.95 441.02 1366.93L871.401 1366.93C877.75 1366.95 882.891 1372.09 882.905 1378.44L882.905 1378.44Z" id="Shape" fill="#DDC558" stroke="none" />
        <path d="M901.939 1290.41L901.939 1311.49C901.921 1317.84 896.777 1322.98 890.427 1323L460.046 1323C453.696 1322.98 448.552 1317.84 448.534 1311.49L448.534 1290.41C448.552 1284.06 453.694 1278.92 460.046 1278.89L890.427 1278.89C896.779 1278.92 901.921 1284.06 901.939 1290.41L901.939 1290.41Z" id="Shape" fill="#DDC558" stroke="none" />
        <path d="M835.86 1334.32L835.86 1355.41C835.842 1361.76 830.7 1366.91 824.349 1366.93L393.976 1366.93C387.624 1366.91 382.482 1361.76 382.464 1355.41L382.464 1334.32C382.482 1327.97 387.627 1322.83 393.976 1322.82L824.357 1322.82C830.701 1322.84 835.838 1327.98 835.86 1334.32L835.86 1334.32Z" id="Shape" fill="#DDC558" stroke="none" />
        <path d="M811.865 1422.55L811.865 1443.65C811.842 1450 806.701 1455.14 800.353 1455.16L741.406 1455.16C721.508 1426.52 654.274 1415.1 588.47 1411.04L800.419 1411.04C806.742 1411.1 811.842 1416.23 811.865 1422.55L811.865 1422.55Z" id="Shape" fill="#C48017" fill-opacity="0.4" stroke="none" />
        <path d="M710.703 1366.93C587.406 1366.93 524.736 1397.03 502.236 1411.04L441.02 1411.04C434.673 1411.02 429.531 1405.88 429.508 1399.54L429.508 1378.44C429.527 1372.09 434.67 1366.95 441.02 1366.93L710.703 1366.93Z" id="Shape" fill="#C48017" fill-opacity="0.4" stroke="none" />
        <path d="M460.046 1278.89L692.591 1278.89C615.292 1279.29 509.118 1318.63 505.42 1322.82L505.203 1323L460.046 1323C453.696 1322.98 448.552 1317.84 448.534 1311.49L448.534 1290.41C448.552 1284.06 453.694 1278.92 460.046 1278.89L460.046 1278.89Z" id="Shape" fill="#C48017" fill-opacity="0.4" stroke="none" />
        <path d="M901.939 1204.41L901.939 1225.5C901.916 1231.84 896.774 1236.98 890.427 1237L460.046 1237C453.699 1236.98 448.557 1231.84 448.534 1225.5L448.534 1204.41C448.552 1198.06 453.694 1192.91 460.046 1192.89L890.427 1192.89C896.779 1192.91 901.921 1198.06 901.939 1204.41L901.939 1204.41Z" id="Shape" fill="#DDC558" stroke="none" />
        <path d="M902.919 1248.32L902.919 1269.41C902.901 1275.76 897.759 1280.91 891.408 1280.93L461.027 1280.93C454.675 1280.91 449.533 1275.76 449.515 1269.41L449.515 1248.32C449.52 1241.96 454.667 1236.8 461.027 1236.78L891.408 1236.78C897.768 1236.8 902.915 1241.96 902.92 1248.32L902.919 1248.32Z" id="Shape" fill="#DDC558" stroke="none" />
        <path d="M460.046 1192.89L692.591 1192.89C615.292 1193.29 509.118 1232.63 505.42 1236.82L505.203 1237L460.046 1237C453.699 1236.98 448.557 1231.84 448.534 1225.5L448.534 1204.41C448.552 1198.06 453.694 1192.91 460.046 1192.89L460.046 1192.89Z" id="Shape" fill="#C48017" fill-opacity="0.4" stroke="none" />
        <path d="M532.571 1158.57C486.813 1112.81 486.813 1038.62 532.571 992.861C578.329 947.104 652.517 947.104 698.275 992.861C744.033 1038.62 744.033 1112.81 698.275 1158.57C652.517 1204.32 578.329 1204.32 532.571 1158.57Z" id="Circle" fill="#DDC558" fill-rule="evenodd" stroke="none" />
        <path d="M615.641 1183.71C611.316 1183.71 606.995 1183.45 602.7 1182.95C544.774 1176.05 502.814 1124.37 507.965 1066.27C513.117 1008.16 563.514 964.665 621.75 968.068C679.986 971.471 724.975 1020.54 723.323 1078.85C721.671 1137.16 673.977 1183.61 615.642 1183.71L615.641 1183.71ZM615.217 972.646C559.226 972.606 513.341 1017.08 511.627 1073.04C509.914 1129.01 552.992 1176.2 608.882 1179.59C664.771 1182.97 713.231 1141.32 718.284 1085.56C723.338 1029.8 683.156 980.113 627.569 973.395C623.47 972.902 619.346 972.653 615.217 972.646L615.217 972.646Z" id="Shape" fill="#C48017" fill-rule="evenodd" stroke="none" />
        <path d="M629.389 1107.95C629.684 1105.8 629.597 1103.62 629.131 1101.5C628.636 1099.54 627.704 1097.71 626.405 1096.15C624.827 1094.29 622.991 1092.67 620.953 1091.34C618.255 1089.56 615.433 1087.98 612.508 1086.61C607.164 1084.02 601.956 1081.16 596.907 1078.03C592.614 1075.41 588.698 1072.22 585.27 1068.54C582.189 1065.21 579.841 1061.27 578.38 1056.97C575.682 1047.69 576.748 1037.72 581.347 1029.22C583.514 1025.47 586.445 1022.22 589.95 1019.67C593.671 1017 597.843 1015.01 602.268 1013.81C607.274 1012.44 612.458 1011.84 617.645 1012.03L619.814 993.742L634.542 995.487L632.323 1014.03C637.234 1015.22 641.916 1017.22 646.179 1019.93C654.147 1024.95 659.745 1032.98 661.697 1042.19C662.792 1047.36 662.997 1052.68 662.303 1057.92L635.706 1054.76C636.52 1047.91 635.609 1042.62 632.971 1038.87C630.334 1035.11 626.472 1032.94 621.385 1032.33C618.962 1031.99 616.497 1032.1 614.112 1032.64C612.177 1033.1 610.367 1033.98 608.809 1035.22C607.355 1036.42 606.188 1037.92 605.393 1039.63C604.522 1041.47 603.96 1043.43 603.731 1045.45C603.478 1047.39 603.56 1049.36 603.972 1051.27C604.433 1053.15 605.326 1054.91 606.581 1056.39C608.174 1058.25 610.028 1059.87 612.084 1061.2C614.907 1063.06 617.838 1064.76 620.861 1066.28C626.546 1069.2 631.691 1072.13 636.296 1075.05C640.592 1077.69 644.507 1080.91 647.932 1084.61C651.008 1087.97 653.355 1091.94 654.823 1096.25C657.528 1105.59 656.438 1115.62 651.789 1124.16C649.611 1127.89 646.668 1131.12 643.153 1133.63C639.404 1136.25 635.206 1138.16 630.769 1139.27C625.719 1140.55 620.515 1141.11 615.309 1140.93L613.289 1157.95L598.652 1156.16L600.664 1139.24C595.681 1138.13 590.852 1136.43 586.284 1134.15C581.833 1131.95 577.837 1128.93 574.507 1125.25C571.112 1121.43 568.59 1116.91 567.117 1112.02C565.488 1106.85 565.078 1100.84 565.887 1094.01L592.485 1097.16C591.969 1100.61 592.138 1104.12 592.984 1107.5C593.672 1110.11 594.971 1112.52 596.774 1114.54C598.461 1116.36 600.542 1117.78 602.858 1118.69C605.194 1119.63 607.645 1120.26 610.147 1120.55C612.718 1120.91 615.329 1120.84 617.877 1120.35C619.959 1119.93 621.938 1119.11 623.695 1117.92C625.29 1116.81 626.612 1115.35 627.56 1113.65C628.536 1111.89 629.158 1109.95 629.389 1107.95L629.389 1107.95Z" id="Shape" fill="#C48017" stroke="none" />
        <path d="M1825.34 78.0804L1694.32 568.372L1689.73 556.562L1679.6 564.441L1674.92 552.605L1663.79 560.21L1658.99 548.349L1648.79 556.204L1641.86 543.77L1631.64 551.624L1625.07 539.281L1612.29 546.454L1606.02 534.186L1594.72 541.758L1591.17 530.222L1579.65 537.727L1575.8 526.116L1566.48 534.211L1561.82 522.384L1551.07 530.089L1543.17 517.397L1531.69 524.91L1525.98 512.8L1514.99 520.447L1510.73 508.728L1501.2 516.765L1496.14 504.829L1485.8 512.642L1481.13 500.815L1469.65 508.329L1464.92 496.484L1453.36 503.973L1448.78 492.171L1438.41 499.984L1431.66 487.599L1420.91 495.304L1415.45 483.26L1402.15 490.292L1533.16 0L1825.34 78.0804L1825.34 78.0804Z" id="Polygon" fill="#595AA3" fill-rule="evenodd" stroke="none" />
        <path d="M1770.4 132.78L1559.67 76.4679C1555.69 75.3932 1553.33 71.306 1554.39 67.325L1554.39 67.325C1555.47 63.3518 1559.56 60.9968 1563.54 62.0554L1774.22 118.351C1778.19 119.429 1780.55 123.515 1779.49 127.494L1779.49 127.494C1778.42 131.449 1774.37 133.806 1770.4 132.78L1770.4 132.78Z" id="Shape" fill="#CED2EC" stroke="none" />
        <path d="M1758 179.01L1547.31 122.706C1543.34 121.628 1540.98 117.542 1542.04 113.563L1542.04 113.563C1543.12 109.587 1547.2 107.227 1551.18 108.285L1761.87 164.589C1765.85 165.663 1768.21 169.751 1767.15 173.732L1767.15 173.732C1766.07 177.712 1761.98 180.073 1758 179.01L1758 179.01Z" id="Shape" fill="#CED2EC" stroke="none" />
        <path d="M1745.65 225.248L1534.96 168.952C1530.98 167.878 1528.62 163.791 1529.68 159.81L1529.68 159.81C1530.76 155.833 1534.84 153.474 1538.82 154.532L1749.51 210.835C1753.48 211.914 1755.84 216 1754.78 219.978L1754.78 219.978C1753.7 223.947 1749.62 226.301 1745.65 225.248L1745.65 225.248Z" id="Shape" fill="#CED2EC" stroke="none" />
        <path d="M1733.29 271.478L1522.6 215.174C1518.63 214.096 1516.27 210.01 1517.33 206.031L1517.33 206.031C1518.41 202.055 1522.49 199.695 1526.47 200.753L1737.15 257.082C1741.13 258.156 1743.49 262.244 1742.43 266.225L1742.43 266.225C1741.34 270.191 1737.26 272.537 1733.29 271.478L1733.29 271.478Z" id="Shape" fill="#CED2EC" stroke="none" />
        <path d="M1720.93 317.707L1510.24 261.404C1506.26 260.329 1503.9 256.242 1504.96 252.261L1504.96 252.261C1506.04 248.284 1510.12 245.925 1514.11 246.983L1724.79 303.287C1728.76 304.365 1731.12 308.451 1730.06 312.429L1730.06 312.429C1728.99 316.398 1724.91 318.755 1720.93 317.707L1720.93 317.707Z" id="Shape" fill="#CED2EC" stroke="none" />
        <path d="M1596.03 404.939C1596.32 403.935 1596.43 402.888 1596.35 401.847C1596.25 400.875 1595.93 399.937 1595.42 399.104C1594.79 398.112 1594.02 397.214 1593.14 396.436C1591.98 395.402 1590.74 394.455 1589.43 393.602C1586.89 391.856 1584.6 390.136 1582.59 388.44C1580.71 386.9 1579.06 385.107 1577.67 383.112C1576.43 381.311 1575.58 379.269 1575.18 377.12C1574.53 372.507 1575.72 367.823 1578.51 364.087C1579.79 362.44 1581.42 361.086 1583.27 360.114C1585.23 359.092 1587.35 358.431 1589.54 358.161C1592.03 357.85 1594.56 357.92 1597.02 358.368L1599.31 349.782L1606.22 351.628L1603.9 360.33C1606.16 361.236 1608.26 362.508 1610.11 364.095C1611.82 365.548 1613.23 367.321 1614.26 369.315C1615.26 371.336 1615.86 373.532 1616.02 375.781C1616.18 378.326 1615.9 380.879 1615.19 383.329L1602.73 380.004C1603.58 376.796 1603.51 374.205 1602.51 372.232C1601.48 370.236 1599.62 368.802 1597.42 368.318C1596.29 367.991 1595.11 367.873 1593.93 367.968C1592.98 368.043 1592.06 368.327 1591.23 368.8C1590.46 369.274 1589.79 369.912 1589.29 370.67C1588.76 371.483 1588.37 372.379 1588.13 373.321C1587.87 374.231 1587.77 375.179 1587.84 376.122C1587.93 377.055 1588.24 377.954 1588.74 378.749C1589.37 379.747 1590.14 380.649 1591.03 381.425C1592.25 382.508 1593.53 383.518 1594.87 384.451C1597.38 386.24 1599.64 387.986 1601.64 389.687C1603.5 391.251 1605.14 393.057 1606.52 395.056C1610.26 400.977 1609.93 408.6 1605.68 414.173C1604.39 415.807 1602.77 417.145 1600.91 418.096C1598.94 419.092 1596.81 419.718 1594.61 419.942C1592.12 420.203 1589.6 420.107 1587.13 419.659L1585 427.647L1578.14 425.81L1580.26 417.872C1577.96 417.005 1575.77 415.857 1573.75 414.456C1571.78 413.101 1570.09 411.386 1568.76 409.402C1567.41 407.344 1566.52 405.016 1566.15 402.578C1565.74 399.673 1565.96 396.715 1566.79 393.901L1579.26 397.226C1578.78 398.842 1578.63 400.536 1578.8 402.213C1578.94 403.508 1579.4 404.751 1580.12 405.837C1580.8 406.827 1581.69 407.653 1582.74 408.255C1583.78 408.86 1584.9 409.327 1586.06 409.643C1587.26 409.984 1588.51 410.127 1589.76 410.067C1590.79 410.017 1591.79 409.76 1592.72 409.311C1593.56 408.892 1594.29 408.286 1594.85 407.541C1595.41 406.758 1595.81 405.875 1596.03 404.939L1596.03 404.939Z" id="Shape" fill="#CED2EC" stroke="none" />
        <path d="M1591.08 445.367C1586.09 445.364 1581.12 444.707 1576.29 443.414C1545.93 435.291 1527.9 404.101 1536.01 373.737L1536.01 373.737C1543.65 345.27 1571.77 327.353 1600.8 332.455C1629.82 337.557 1650.15 363.988 1647.62 393.354C1645.1 422.72 1620.56 445.294 1591.09 445.367L1591.08 445.367ZM1590.86 333.749C1566.15 333.816 1544.54 350.443 1538.15 374.319L1538.15 374.319C1532.44 395.677 1540.16 418.371 1557.71 431.818C1575.26 445.265 1599.18 446.818 1618.32 435.751C1637.46 424.684 1648.04 403.177 1645.14 381.26C1642.24 359.344 1626.42 341.333 1605.06 335.628C1600.43 334.385 1595.66 333.754 1590.86 333.749L1590.86 333.749Z" id="Shape" fill="#CED2EC" fill-rule="evenodd" stroke="none" />
        <path d="M2227.17 1454.59L7.72991 1454.59C3.4743 1454.59 0 1458.5 0 1463.27L0 1463.36C0 1468.13 3.4743 1472.04 7.72991 1472.04L2227.17 1472.04C2231.32 1472.04 2234.76 1468.21 2234.76 1463.52L2234.76 1463.11C2234.76 1458.43 2231.34 1454.59 2227.17 1454.59L2227.17 1454.59Z" id="Shape" fill="#3A3583" stroke="none" />
        <path d="M874.718 709.231L437.845 393.244C429.543 387.194 427.686 375.574 433.689 367.237L607.097 127.46C613.144 119.159 624.762 117.302 633.096 123.304L1069.98 439.291C1078.28 445.339 1080.14 456.956 1074.13 465.29L900.725 705.051C894.682 713.361 883.061 715.229 874.718 709.231L874.718 709.231Z" id="Shape" fill="#DDC558" stroke="none" />
        <path d="M588.948 152.521L1055.99 490.353L1017.35 543.772L550.308 205.939L588.948 152.521Z" id="Rectangle" fill="#C48017" fill-opacity="0.4" fill-rule="evenodd" stroke="none" />
        <path d="M574.679 246.287L860.44 452.991L830.057 494.995L544.296 288.291L574.679 246.287Z" id="Rectangle" fill="#C48017" fill-opacity="0.2" fill-rule="evenodd" stroke="none" />
        <path d="M528.376 409.095L492.885 383.42C489.861 381.233 487.829 377.935 487.236 374.25C486.644 370.565 487.54 366.795 489.727 363.771L511.869 333.159C516.426 326.86 525.226 325.446 531.527 330L567.018 355.667C573.295 360.237 574.709 369.015 570.184 375.324L548.042 405.936C545.855 408.966 542.553 411.001 538.864 411.594C535.175 412.186 531.402 411.287 528.377 409.095L528.376 409.095Z" id="Shape" fill="#C48017" fill-opacity="0.2" stroke="none" />
        <path d="M910.001 611.951L626.355 406.801C625.569 406.236 625.04 405.381 624.884 404.426C624.728 403.47 624.958 402.491 625.524 401.706L625.524 401.706C626.088 400.918 626.942 400.387 627.899 400.231C628.855 400.075 629.834 400.307 630.619 400.875L914.29 606.041C915.076 606.606 915.606 607.461 915.761 608.417C915.917 609.372 915.687 610.351 915.121 611.136L915.121 611.136C914.553 611.927 913.693 612.458 912.731 612.611C911.769 612.764 910.786 612.526 910.001 611.951L910.001 611.951Z" id="Shape" fill="#C48017" fill-opacity="0.2" stroke="none" />
        <path d="M892.164 636.612L608.518 431.462C607.732 430.897 607.203 430.042 607.047 429.086C606.891 428.131 607.121 427.152 607.687 426.367L607.687 426.367C608.252 425.58 609.107 425.051 610.062 424.895C611.018 424.739 611.996 424.97 612.782 425.535L896.428 630.686C897.214 631.251 897.744 632.105 897.9 633.061C898.055 634.016 897.825 634.995 897.259 635.781L897.259 635.781C896.695 636.569 895.841 637.099 894.885 637.255C893.928 637.411 892.949 637.18 892.164 636.612L892.164 636.612Z" id="Shape" fill="#C48017" fill-opacity="0.2" stroke="none" />
        <path d="M874.884 660.508L591.238 455.358C590.452 454.793 589.923 453.938 589.767 452.983C589.611 452.027 589.841 451.049 590.407 450.263L590.407 450.263C590.972 449.477 591.827 448.947 592.782 448.791C593.738 448.635 594.716 448.866 595.502 449.432L879.148 654.582C880.782 655.764 881.153 658.045 879.979 659.685L879.979 659.685C879.413 660.47 878.558 660.998 877.602 661.152C876.646 661.306 875.669 661.075 874.884 660.508L874.884 660.508Z" id="Shape" fill="#C48017" fill-opacity="0.2" stroke="none" />
        <path d="M638.981 643.203C606.424 639.047 598.203 668.637 598.203 668.637C598.203 668.637 557.775 685.31 544.111 691.477C531.452 697.188 492.885 716.163 492.885 716.163C492.885 716.163 421.238 631.001 394.15 628.79L398.78 693.863C398.78 693.863 430.697 728.697 443.414 739.91C451.958 747.44 483.842 768.86 483.842 768.86C483.842 768.86 513.989 758.927 554.849 728.963C567.691 719.588 604.263 688.976 604.263 688.976C614.303 690.364 623.08 687.745 631.176 676.167C639.271 664.589 641.491 669.036 646.636 660.375C653.634 648.73 642.713 644.375 638.981 643.203L638.981 643.203Z" id="Shape" fill="#D2A4AB" stroke="none" />
        <path d="M274.445 1367.12L290.37 1434.2L314.225 1434.06L315.098 1367.12L274.445 1367.12L274.445 1367.12Z" id="Polygon" fill="#D4A6AD" fill-rule="evenodd" stroke="none" />
        <path d="M302.464 1428.29C275.476 1427.12 274.445 1454.57 274.445 1454.57L329.618 1454.57C329.618 1454.57 329.452 1427.12 302.464 1428.29L302.464 1428.29Z" id="Shape" fill="#B64D00" stroke="none" />
        <path d="M481.498 1369.98L520.43 1434.21L544.285 1434.06L525.077 1361.15L481.498 1369.98L481.498 1369.98Z" id="Polygon" fill="#D4A6AD" fill-rule="evenodd" stroke="none" />
        <path d="M532.524 1428.29C505.536 1427.12 504.522 1454.55 504.522 1454.55L559.703 1454.55C559.703 1454.55 559.512 1427.12 532.524 1428.29L532.524 1428.29Z" id="Shape" fill="#B64D00" stroke="none" />
        <path d="M357.296 485.646C349.059 480.966 339.185 480.459 332.286 480.867C334.065 479.03 337.556 478.373 337.556 478.373C333.275 477.733 323.725 481.98 323.725 481.98C264.18 459.032 254.821 546.712 256.076 567.076C257.331 587.44 236.053 594.089 205.084 610.139C145.971 640.759 140.784 681.761 140.784 681.761C141.241 682.035 141.723 682.343 142.239 682.7C145.164 677.713 151.207 668.396 156.294 666.991C156.103 667.44 150.276 679.833 148.107 686.939C165.561 700.238 198.168 729.595 220.901 750.432C220.801 746.36 220.959 740.575 222.447 737.524L225.248 754.439C237.416 765.626 245.803 773.489 245.803 773.489C244.315 757.032 320.259 670.166 359.898 644.159C369.548 629.962 372.972 604.878 373.197 602.899C371.534 622.789 368.126 633.944 365.084 640.227C398.655 609.341 379.123 498.055 357.296 485.646L357.296 485.646Z" id="Shape" fill="#A53C00" stroke="none" />
        <path d="M357.537 645.447C352.035 642.879 355.426 596.017 355.426 596.017L308.781 586.808C305.539 602.151 307.226 628.965 301.441 630.12C301.25 630.12 310.194 647.891 323.883 651.623C338.404 655.571 357.737 645.539 357.537 645.447L357.537 645.447Z" id="Shape" fill="#C38B95" stroke="none" />
        <path d="M309.919 498.404C309.919 498.404 335.029 475.215 359.79 499.975C359.765 499.975 343.274 498.08 309.919 498.404L309.919 498.404Z" id="Shape" fill="#595AA3" stroke="none" />
        <path d="M306.852 582.502C306.852 582.502 293.944 562.105 290.844 544.659C288.633 532.192 295 486.045 341.363 492.694C350.703 493.992 359.633 497.369 367.495 502.577C377.568 509.376 392.106 524.063 375.848 564.35L371.626 577.956L306.852 582.502Z" id="Shape" fill="#B64D00" stroke="none" />
        <path d="M393.361 888.964L280.994 888.964L281.069 889.571L232.03 890.161C232.03 890.161 222.887 908.314 218.898 959.979C213.404 1031.36 217.443 1164.4 267.812 1393.32L331.812 1393.32C333.225 1393.32 332.81 1210.51 332.253 1065.01L332.926 1066.79C390.917 1219.97 475.821 1394.05 475.821 1394.05L542.315 1394.05C528.468 1318.56 393.361 888.964 393.361 888.964L393.361 888.964Z" id="Shape" fill="#595AA3" stroke="none" />
        <path d="M268.062 707.594L224.799 702.948C224.799 702.948 221.965 718.507 217.028 814.857C217.028 814.857 202.898 901.116 199.274 942.608C199.274 942.608 177.663 957.569 188.801 984.167C188.801 984.167 194.162 994.731 199.606 987.832C205.05 980.933 202.1 982.754 210.054 973.203C218.008 963.653 221.383 951.152 217.875 942.974C217.875 942.974 251.031 827.74 252.103 818.572C253.175 809.404 268.062 707.594 268.062 707.594L268.062 707.594Z" id="Shape" fill="#D4A6AD" stroke="none" />
        <path d="M475.805 1394.08C475.805 1394.08 390.9 1220 332.91 1066.82C331.247 1045.59 328.488 1015.09 341.803 1004.48C341.803 1004.49 483.26 1266.41 475.805 1394.08L475.805 1394.08Z" id="Shape" fill="#53529E" stroke="none" />
        <path d="M402.537 838.47C402.146 916.601 403.717 921.795 403.717 921.795C403.717 921.795 341.471 924.289 300.793 915.196C299.912 915.005 298.923 914.706 297.942 914.506C284.344 911.181 258.545 903.086 242.977 898.157C235.197 895.663 229.977 894.001 229.977 894.001C231.157 890.843 232.346 887.792 233.526 884.933C248.695 847.015 260.215 830.466 261.986 818.846C262.11 818.015 262.227 817.184 262.343 816.411C262.576 814.782 262.792 813.153 262.991 811.524L263.266 809.113C263.266 808.856 263.324 808.59 263.349 808.332C265.172 790.056 265.311 771.651 263.764 753.35C263.133 744.988 262.21 736.835 261.113 729.005L259.741 728.34L220.535 709.323C228.523 670.923 242.86 650.102 242.86 650.102L243.027 650.019C257.988 638.64 283.255 629.056 303.976 626.995C308.698 633.794 317.051 640.477 329.46 640.086C343.84 639.787 350.165 632.506 354.395 625.807C385.423 626.696 394.167 628.167 394.167 628.167L394.167 628.209C394.998 628.092 407.059 626.929 443.389 657.79C443.389 657.79 422.103 706.663 421.845 718.466L421.28 718.042C422.111 724.259 422.701 730.509 423 736.685C423.416 746.576 402.537 836.309 402.537 838.47L402.537 838.47Z" id="Shape" fill="#DDC558" stroke="none" />
        <path d="M309.421 1393.35L267.804 1393.35C217.435 1164.47 213.395 1031.39 218.889 960.004C231.382 1023.62 302.788 1386.12 309.421 1393.35L309.421 1393.35Z" id="Shape" fill="#53529E" stroke="none" />
        <path d="M242.977 898.157C235.197 895.663 229.977 894.001 229.977 894.001C231.157 890.843 232.346 887.792 233.526 884.933C248.695 847.015 260.215 830.466 261.986 818.846C262.11 818.015 262.227 817.234 262.343 816.411C262.576 814.81 262.792 813.18 262.991 811.524C263.091 810.693 263.183 809.92 263.266 809.113C263.266 808.856 263.324 808.59 263.349 808.332C265.172 790.056 265.311 771.651 263.764 753.35C263.133 744.988 262.21 736.834 261.113 729.005C261.113 729.005 264.861 728.855 266.291 731.864C304.799 813.145 279.814 865.068 242.977 898.157L242.977 898.157Z" id="Shape" fill="#C48017" fill-opacity="0.4" stroke="none" />
        <path d="M363.655 608.418C363.655 608.418 305.365 609.383 305.323 573.069C305.281 536.755 297.734 512.435 334.946 510.282C372.158 508.129 379.405 521.985 382.323 534.095C385.24 546.205 378.815 607.188 363.655 608.418L363.655 608.418Z" id="Shape" fill="#D2A4AB" stroke="none" />
        <path d="M380.677 513.864C371.684 502.967 364.885 505.336 361.061 508.611C355.534 500.349 344.754 500.956 334.406 504.247C320.799 508.561 306.852 513.848 304.483 532.067C302.156 549.929 285.973 557.983 285.973 557.983C285.973 557.983 296.604 564.549 321.09 558.249C340.365 553.262 354.337 525.833 359.441 514.396C362.907 517.471 370.246 524.595 372.415 531.568C375.316 540.811 376.629 559.828 382.173 559.196C382.123 559.196 394.15 530.288 380.677 513.864L380.677 513.864Z" id="Shape" fill="#B64D00" stroke="none" />
        <path d="M648.905 641.283L627.186 626.372C627.007 626.249 626.811 626.151 626.604 626.081L626.604 626.081L622.906 624.576L602.525 687.504L619.639 701.576L623.147 703.014L623.147 703.014L623.147 703.014L623.147 703.014C624.568 703.596 626.372 702.682 627.128 700.828L649.744 645.397C650.44 643.995 650.094 642.3 648.905 641.283L648.905 641.283Z" id="Shape" fill="#3A3582" stroke="none" />
        <path d="M598.045 683.764L618.775 701.111C620.229 702.333 622.507 701.435 623.388 699.299L646.004 643.86C646.693 642.449 646.329 640.75 645.123 639.745L623.38 624.834C621.9 623.812 619.781 624.751 618.949 626.787L597.339 679.783C596.706 681.125 596.989 682.721 598.045 683.764L598.045 683.764Z" id="Shape" fill="#595AA3" stroke="none" />
        <path d="M601.42 676.965L621.825 694.054L642.339 643.776L620.953 629.09L601.42 676.965L601.42 676.965Z" id="Polygon" fill="#DDC558" fill-rule="evenodd" stroke="none" />
        <path d="M609.466 688.527C609.787 687.612 609.405 686.599 608.56 686.125C607.778 685.801 606.897 686.357 606.631 687.371C606.305 688.288 606.688 689.307 607.537 689.782C608.319 690.098 609.183 689.541 609.466 688.527L609.466 688.527Z" id="Shape" fill="#3A3582" stroke="none" />
        <path d="M621.717 666.717C621.924 666.285 622.069 665.826 622.149 665.354C622.209 664.992 622.169 664.621 622.033 664.281C621.883 663.933 621.656 663.623 621.368 663.375C620.987 663.05 620.568 662.771 620.121 662.544C619.312 662.119 618.539 661.627 617.811 661.073C617.191 660.605 616.683 660.007 616.323 659.319C615.975 658.604 615.823 657.81 615.882 657.017C615.989 655.933 616.291 654.877 616.772 653.9C617.235 652.881 617.827 651.926 618.534 651.058C619.219 650.222 620.006 649.477 620.878 648.838C621.735 648.219 622.668 647.71 623.654 647.326C624.633 646.957 625.661 646.73 626.704 646.652L628.491 642.721L631.151 642.771L629.339 646.76C630.134 646.88 630.884 647.204 631.517 647.7C632.087 648.161 632.499 648.789 632.697 649.495C632.912 650.34 632.941 651.222 632.78 652.08C632.579 653.232 632.221 654.35 631.716 655.405L626.92 655.321C627.585 653.85 627.81 652.753 627.594 651.997C627.379 651.272 626.684 650.8 625.931 650.866C625.456 650.854 624.982 650.93 624.535 651.091C624.102 651.246 623.698 651.47 623.338 651.756C622.966 652.047 622.636 652.388 622.357 652.77C622.063 653.161 621.815 653.585 621.617 654.033C621.429 654.423 621.295 654.837 621.218 655.263C621.16 655.61 621.198 655.967 621.326 656.294C621.482 656.641 621.715 656.948 622.008 657.192C622.404 657.531 622.832 657.829 623.288 658.081C624.079 658.528 624.834 659.033 625.549 659.594C626.167 660.071 626.672 660.678 627.028 661.372C627.374 662.091 627.523 662.888 627.461 663.683C627.358 664.759 627.059 665.807 626.58 666.775C626.112 667.817 625.508 668.793 624.784 669.676C624.103 670.508 623.315 671.246 622.44 671.87C621.587 672.483 620.656 672.98 619.672 673.35C618.691 673.713 617.665 673.942 616.622 674.031L614.96 677.688L612.317 677.647L613.979 674.006C613.161 673.898 612.369 673.642 611.643 673.25C610.962 672.872 610.416 672.291 610.081 671.588C609.713 670.758 609.572 669.846 609.674 668.944C609.83 667.624 610.21 666.34 610.796 665.146L615.6 665.229C615.257 665.914 615.027 666.649 614.918 667.407C614.84 667.885 614.904 668.377 615.101 668.82C615.275 669.166 615.571 669.436 615.932 669.576C616.327 669.728 616.747 669.807 617.171 669.809C618.159 669.837 619.129 669.545 619.938 668.978C620.337 668.701 620.692 668.368 620.994 667.989C621.288 667.597 621.531 667.169 621.717 666.717L621.717 666.717Z" id="Shape" fill="#C88412" stroke="none" />
        <path d="M1369.91 1455.12L971.782 1454.59C897.475 1454.5 836.767 1393.63 836.866 1319.34L838.055 409.968C838.138 350.555 877.062 299.837 930.631 281.967C944.392 277.368 958.81 275.038 973.32 275.068L975.365 275.068L1063.07 275.193L1280.34 275.467C1280.38 275.471 1280.42 275.471 1280.46 275.467L1371.45 275.592C1445.75 275.683 1506.47 336.559 1506.36 410.849L1505.18 1320.22C1505.08 1394.51 1444.22 1455.21 1369.91 1455.12L1369.91 1455.12Z" id="Shape" fill="#595AA3" stroke="none" />
        <path d="M1354.52 1431.45L987.234 1430.98C924.131 1430.89 872.532 1379.19 872.64 1316.08L873.263 837.24L873.355 770.746L873.421 717.477L873.671 524.57L873.795 429.276L873.795 413.284C873.878 350.165 925.586 298.582 988.688 298.682L1063.27 298.782L1177.21 298.931L1355.98 299.164C1386.42 299.186 1415.61 311.311 1437.11 332.868C1458.61 354.425 1470.65 383.645 1470.59 414.09L1469.41 1316.86C1469.33 1379.97 1417.63 1431.53 1354.52 1431.45L1354.52 1431.45Z" id="Shape" fill="#DDC558" stroke="none" />
        <path d="M1280.28 322.669L1063.01 322.387C1049.99 322.332 1039.46 311.77 1039.44 298.748L1039.44 298.748C1039.49 285.729 1050.05 275.195 1063.07 275.168L1280.34 275.451C1293.36 275.51 1303.89 286.074 1303.91 299.097L1303.91 299.097C1303.86 312.117 1293.3 322.647 1280.28 322.669L1280.28 322.669Z" id="Shape" fill="#595AA3" stroke="none" />
        <g id="Group" transform="translate(969.16394 848.5691)" opacity="0.4">
          <path d="M390.867 39.7051L20.2226 39.0153C9.4622 38.9605 0.76553 30.2267 0.7565 19.4661L0.7565 19.4661C0.806927 8.70677 9.5384 0.00892861 20.2976 0L390.942 0.689888C401.703 0.735596 410.404 9.46966 410.408 20.2308L410.408 20.2308C410.358 30.9914 401.628 39.6916 390.867 39.7051L390.867 39.7051Z" id="Shape" fill="#C48017" stroke="none" />
          <path d="M390.676 140.526L20.0397 139.837C9.27927 139.786 0.578842 131.056 0.565247 120.296L0.565247 120.296C0.619934 109.537 9.34735 100.84 20.106 100.821L390.751 101.511C401.511 101.561 410.212 110.291 410.225 121.052L410.225 121.052C410.171 131.814 401.438 140.513 390.676 140.526L390.676 140.526Z" id="Shape" fill="#C48017" stroke="none" />
          <path d="M390.477 251.072L19.832 250.374C9.07148 250.324 0.371048 241.594 0.357452 230.833L0.357554 230.833C0.412546 220.073 9.14645 211.376 19.9071 211.367L390.543 212.057C401.304 212.107 410.004 220.837 410.018 231.598L410.018 231.598C409.967 242.359 401.237 251.059 390.477 251.072L390.477 251.072Z" id="Shape" fill="#C48017" stroke="none" />
          <path d="M102.376 445.567L19.4661 445.409C8.70509 445.363 0.00446431 436.629 0 425.868L0 425.868C0.0505278 415.107 8.78088 406.407 19.5414 406.394L102.45 406.552C113.211 406.597 121.912 415.331 121.917 426.092L121.916 426.092C121.866 436.853 113.136 445.553 102.375 445.567L102.376 445.567Z" id="Shape" fill="#C48017" stroke="none" />
          <path d="M390.111 446.115L307.201 445.957C296.455 445.907 287.763 437.196 287.735 426.45L287.735 426.45C287.781 415.687 296.514 406.984 307.276 406.975L390.186 407.125C400.946 407.18 409.643 415.914 409.652 426.674L409.652 426.674C409.583 437.422 400.858 446.102 390.111 446.115L390.111 446.115Z" id="Shape" fill="#C48017" stroke="none" />
        </g>
        <path d="M1171.68 766.724C1089.95 766.724 1023.46 700.23 1023.46 618.5C1023.46 536.771 1089.95 470.269 1171.68 470.269C1253.41 470.269 1319.9 536.763 1319.9 618.5C1319.9 700.238 1253.41 766.724 1171.68 766.724L1171.68 766.724ZM1171.68 478.722C1094.6 478.722 1031.9 541.426 1031.9 618.5C1031.9 695.575 1094.6 758.271 1171.68 758.271C1248.75 758.271 1311.46 695.567 1311.46 618.5C1311.46 541.434 1248.75 478.755 1171.68 478.755L1171.68 478.722Z" id="Shape" fill="#C48017" fill-rule="evenodd" stroke="none" />
        <path d="M1072.13 565.48C1072.13 565.48 1130.76 668.936 1162.1 730.293C1162.1 730.293 1247.28 516.682 1299.37 445.135C1299.37 445.135 1201.92 528.742 1149.54 613.863C1149.51 613.854 1114.49 591.529 1072.13 565.48L1072.13 565.48Z" id="Shape" fill="#595AA3" stroke="none" />
        <g id="man" transform="translate(1209.2151 627.1909)">
          <path d="M298.283 340.651L283.812 330.32C283.812 330.32 277.836 296.342 240.034 294.945C240.034 294.945 224.508 295.51 229.695 305.842C234.881 316.173 234.357 311.66 241.331 326.33C248.305 341.001 261.346 351.972 273.024 352.288L285.533 357.749L298.283 340.651Z" id="Shape" fill="#8B5A2A" stroke="none" />
          <path d="M283.812 330.32L273.722 348.797C273.722 348.797 413.874 477.861 435.268 459.659C435.268 459.659 556.013 305.584 540.644 224.437C526.756 151.078 496.85 148.8 491.256 149.049C490.95 149.059 490.645 149.084 490.342 149.124C490.342 149.124 473.378 136.532 413.583 390.272C387.892 371.737 357.313 366.966 283.812 330.32L283.812 330.32Z" id="Shape" fill="#B66C0C" stroke="none" />
          <path d="M666.974 556.898L667.216 640.721C667.238 646.907 672.267 651.906 678.453 651.892L831.48 651.452C834.452 651.445 837.3 650.257 839.395 648.149C841.491 646.041 842.662 643.186 842.651 640.214L842.418 556.399C842.395 550.208 837.363 545.206 831.173 545.22L790.802 545.336L790.802 534.29C790.78 528.855 786.363 524.464 780.928 524.473L728.332 524.623C722.9 524.646 718.511 529.058 718.515 534.489L718.515 545.544L678.145 545.66C671.959 545.683 666.961 550.711 666.974 556.898L666.974 556.898ZM781.053 545.369L728.282 545.519L728.282 534.464C728.279 534.441 728.287 534.417 728.303 534.4C728.319 534.383 728.341 534.373 728.365 534.373L780.962 534.223C780.986 534.223 781.009 534.233 781.026 534.25C781.043 534.267 781.053 534.29 781.053 534.315L781.053 545.369Z" id="Shape" fill="#595AA3" fill-rule="evenodd" stroke="none" />
          <path d="M842.582 587.734L667.147 588.224L667.138 584.941L842.573 584.451L842.582 587.734Z" id="Rectangle" fill="#3A3583" fill-rule="evenodd" stroke="none" />
          <path d="M106.132 798.511L96.416 827.544L0 827.544C0 827.544 24.6858 788.379 106.132 798.511L106.132 798.511Z" id="Shape" fill="#2B2555" stroke="none" />
          <path d="M449.34 170.328C439.798 145.451 436.598 130.215 436.598 130.215L478.298 80.0871C487.541 135.618 528.227 155.034 528.227 155.034C528.227 155.034 468.465 201.023 427.655 196.593C433.219 186.587 440.568 177.685 449.34 170.327L449.34 170.328Z" id="Shape" fill="#8B5A2A" stroke="none" />
          <path d="M424.688 131.67C424.688 131.67 490.126 129.45 488.114 88.723C486.103 47.9956 493.201 20.276 451.343 19.9684C409.485 19.6608 402.13 35.6027 399.495 49.3586C396.86 63.1145 407.615 131.188 424.688 131.67L424.688 131.67Z" id="Shape" fill="#9A6A38" stroke="none" />
          <path d="M488.247 91.5241C488.247 91.5241 476.32 38.8277 416.916 41.928C376.189 44.0558 393.519 6.18758 396.968 0.0867496C396.968 0.0867496 428.336 -0.2291 460.619 0.344411C528.393 1.53298 493.525 82.2731 488.247 91.5241L488.247 91.5241Z" id="Shape" fill="#332E62" stroke="none" />
          <path d="M149.968 798.511L140.252 827.544L43.836 827.544C43.836 827.544 68.5135 788.379 149.968 798.511L149.968 798.511Z" id="Shape" fill="#332E62" stroke="none" />
          <path d="M606.457 488.367C606.457 488.367 442.666 515.131 388 525.77C307.442 541.454 263.465 554.03 263.465 554.03L41.3841 800.224L123.986 800.224C123.986 800.224 308.44 681.166 332.012 651.685L535.125 651.685C535.125 651.685 665.91 629.318 606.457 488.367L606.457 488.367Z" id="Shape" fill="#332E62" stroke="none" />
          <path d="M633.811 503.204C565.305 536.567 488.854 557.23 462.73 563.506C460.636 563.99 458.437 563.433 456.826 562.009C455.216 560.585 454.393 558.47 454.618 556.333C454.992 553.008 455.366 548.245 455.449 542.103C455.757 525.089 453.895 497.394 443.522 459.626C443.522 459.551 443.522 459.493 443.464 459.418C438.892 442.794 432.442 421.749 426.076 399.066L425.926 398.509C421.346 382.193 416.783 365.055 413.101 348.157L413.101 348.082C406.452 318.16 402.346 288.928 404.731 266.444C408.172 234.262 418.271 209.709 430.996 191.207C431.096 191.207 441.369 176.512 441.444 176.503C455.324 176.262 468.931 172.347 481.34 162.307C494.872 151.344 509.425 139.475 512.393 140.804C553.951 159.215 588.927 241.144 604.52 333.528C617.27 409.074 633.212 472.334 638.598 492.889C639.671 497.03 637.666 501.351 633.81 503.204L633.811 503.204Z" id="Shape" fill="#C68216" stroke="none" />
          <path d="M220.518 277.806L243.176 262.247C243.364 262.118 243.568 262.015 243.783 261.939L247.615 260.377L268.926 326.039L250.69 340.793L247.415 342.222L247.415 342.222L247.365 342.222L247.365 342.222C245.886 342.821 244.041 341.873 243.209 339.937L219.571 282.112C218.855 280.63 219.247 278.851 220.518 277.806L220.518 277.806Z" id="Shape" fill="#3A3582" stroke="none" />
          <path d="M273.597 322.133L251.987 340.228C250.466 341.508 248.088 340.577 247.174 338.341L223.577 280.5C222.852 279.028 223.23 277.251 224.491 276.202L247.149 260.643C248.695 259.579 250.906 260.551 251.77 262.679L274.337 317.977C274.998 319.379 274.701 321.045 273.597 322.133L273.597 322.133Z" id="Shape" fill="#595AA3" stroke="none" />
          <path d="M270.065 315.043L248.77 332.872L227.367 280.408L249.684 265.081L270.065 315.043L270.065 315.043Z" id="Polygon" fill="#DBDFF0" fill-rule="evenodd" stroke="none" />
          <path d="M261.67 327.103C261.339 326.154 261.734 325.104 262.609 324.61C263.051 324.483 263.526 324.553 263.912 324.804C264.298 325.054 264.556 325.459 264.62 325.915C264.951 326.864 264.556 327.914 263.681 328.408C263.239 328.536 262.764 328.465 262.378 328.215C261.992 327.964 261.734 327.559 261.67 327.103L261.67 327.103Z" id="Shape" fill="#3A3582" stroke="none" />
          <path d="M249.717 305.659C250.035 306.05 250.404 306.397 250.814 306.69C251.228 306.979 251.681 307.206 252.161 307.363C252.66 307.523 253.183 307.599 253.707 307.587C254.147 307.583 254.583 307.502 254.995 307.346C255.373 307.198 255.683 306.918 255.868 306.557C256.077 306.096 256.146 305.585 256.068 305.086C255.95 304.294 255.709 303.525 255.353 302.808L260.34 302.725C260.955 303.967 261.352 305.305 261.512 306.681C261.622 307.623 261.475 308.576 261.088 309.441C260.718 310.153 260.138 310.734 259.425 311.103C258.668 311.526 257.84 311.808 256.982 311.934L258.711 315.733L255.951 315.733L254.223 311.918C253.134 311.826 252.063 311.586 251.039 311.203C250.011 310.821 249.039 310.304 248.147 309.665C247.235 309.012 246.413 308.24 245.703 307.371C244.945 306.451 244.313 305.434 243.825 304.346C243.328 303.335 243.019 302.242 242.91 301.121C242.844 300.292 242.999 299.46 243.359 298.71C243.731 297.986 244.259 297.353 244.905 296.857C245.65 296.268 246.439 295.737 247.266 295.269C247.739 295.008 248.185 294.699 248.596 294.347C248.904 294.094 249.149 293.772 249.31 293.408C249.444 293.067 249.481 292.696 249.418 292.335C249.342 291.889 249.205 291.456 249.011 291.047C248.798 290.582 248.539 290.139 248.238 289.725C247.945 289.333 247.601 288.98 247.216 288.678C246.839 288.382 246.418 288.146 245.969 287.98C245.5 287.814 245.004 287.735 244.506 287.747C243.706 287.658 242.956 288.155 242.727 288.928C242.503 289.692 242.727 290.848 243.434 292.377L238.447 292.46C237.926 291.358 237.551 290.193 237.333 288.994C237.169 288.1 237.203 287.181 237.433 286.301C237.64 285.565 238.066 284.91 238.655 284.423C239.319 283.909 240.103 283.572 240.932 283.442L239.037 279.286L241.813 279.244L243.675 283.342C244.766 283.441 245.837 283.693 246.858 284.09C248.942 284.914 250.782 286.255 252.203 287.988C252.939 288.894 253.553 289.891 254.031 290.955C254.538 291.973 254.854 293.074 254.962 294.205C255.03 295.033 254.872 295.863 254.505 296.608C254.131 297.327 253.6 297.952 252.951 298.436C252.191 299.014 251.384 299.528 250.54 299.974C250.076 300.197 249.641 300.476 249.244 300.805C248.938 301.056 248.698 301.379 248.545 301.744C248.401 302.099 248.358 302.488 248.421 302.866C248.512 303.357 248.666 303.835 248.878 304.287C249.098 304.779 249.38 305.24 249.717 305.659L249.717 305.659Z" id="Shape" fill="#C88412" stroke="none" />
          <path d="M298.283 362.32L283.812 352.022C283.812 352.022 277.836 318.044 240.034 316.647C240.034 316.647 224.508 317.212 229.694 327.552C234.881 337.892 234.357 333.37 241.331 348.032C248.304 362.694 261.345 373.674 273.023 373.99L285.533 379.45L298.283 362.32Z" id="Shape" fill="#9A6A38" stroke="none" />
          <path d="M517.189 448.18C516.424 474.154 492.943 527.699 455.466 542.103C455.773 525.089 453.912 497.394 443.539 459.626C443.539 459.551 443.539 459.493 443.48 459.418C438.909 442.794 432.459 421.749 426.092 399.066L494.897 299.01C494.897 299.01 518.003 420.087 517.189 448.18L517.189 448.18Z" id="Shape" fill="#B66C0C" fill-opacity="0.6" stroke="none" />
          <path d="M633.811 503.204C633.811 503.204 538.309 504.409 414.822 532.411C369.597 542.668 273.63 563.688 273.63 563.688L70.1093 800.273L152.728 800.273C152.728 800.273 337.182 681.216 360.754 651.734L563.859 651.734C563.859 651.734 693.264 644.121 633.811 503.204L633.811 503.204Z" id="Shape" fill="#3A3583" stroke="none" />
          <path d="M513.474 280.192C513.474 280.192 463.944 379.667 458.616 385.028C454.327 389.317 434.005 395.966 425.984 398.476C421.405 382.16 416.841 365.021 413.159 348.124L413.159 348.049C413.159 348.049 426.026 326.837 432.218 305.252C438.41 283.666 471.707 233.139 471.707 233.139L497.473 250.07L513.474 280.192Z" id="Shape" fill="#B66C0C" fill-opacity="0.6" stroke="none" />
          <path d="M286.065 352.163L273.738 375.744C273.738 375.744 413.891 504.808 435.285 486.605C435.285 486.605 556.03 332.531 540.661 251.384C526.772 178.024 496.867 175.747 491.273 175.996C490.967 176.005 490.662 176.03 490.359 176.071C490.359 176.071 473.394 163.479 413.6 417.219C387.892 398.651 359.557 388.776 286.065 352.163L286.065 352.163Z" id="Shape" fill="#C68216" stroke="none" />
        </g>
        <g id="girl_2" transform="translate(551.9901 915.5872)">
          <path d="M0 340.772L0.831173 339.941C0.559058 340.272 0.281545 340.549 0 340.772L0 340.772Z" id="Shape" fill="#54519E" stroke="none" />
          <path d="M361.851 452.714C346.89 438.692 325.728 399.378 325.728 399.378C325.728 399.378 304.201 407.689 252.003 409.044C199.806 410.399 171.662 402.395 171.662 402.395C156.751 424.521 151.822 447.029 136.927 459.746C124.46 470.343 79.1277 470.933 79.1277 470.933C79.1277 470.933 132.323 537.968 186.715 538.882C242.702 539.829 292.091 538.882 292.091 538.882C292.091 538.882 353.431 518.842 396.212 482.985C396.212 482.977 365.442 456.08 361.851 452.714L361.851 452.714Z" id="Shape" fill="#3A3583" stroke="none" />
          <path d="M274.279 5.95051C265.61 1.79465 255.577 2.01908 248.62 2.93335C250.283 0.946839 253.782 0.0159295 253.782 0.0159295C249.402 -0.31656 240.043 4.6788 240.043 4.6788C178.112 -14.1971 175.037 75.2121 177.788 95.7338C180.539 116.256 159.502 124.534 129.33 143.036C71.7468 178.336 69.486 220.202 69.486 220.202C69.9681 220.443 70.4751 220.726 71.0237 221.033C73.6252 215.797 79.0528 205.914 84.1063 204.119C83.9401 204.584 78.953 217.551 77.2741 224.898C95.8841 237.05 131.043 264.412 155.571 283.845C155.172 279.689 154.914 273.871 156.194 270.671L160.267 287.577C173.399 298.008 182.459 305.364 182.459 305.364C179.741 288.815 250.258 195.375 288.459 166.159C297.186 151.082 298.823 125.432 298.94 123.429C298.707 143.676 296.08 155.221 293.462 161.796C325.163 128.108 297.277 16.9137 274.279 5.95051L274.279 5.95051Z" id="Shape" fill="#332E62" stroke="none" />
          <path d="M212.946 28.3257C212.946 28.3257 235.82 5.67627 262.659 28.9325C262.659 28.9325 246.667 25.558 212.946 28.3257L212.946 28.3257Z" id="Shape" fill="#5A59A3" stroke="none" />
          <path d="M204.236 111.834C199.431 101.389 195.554 90.542 192.649 79.418C189.507 66.9503 192.558 19.7979 240.026 23.1475C249.574 23.7757 258.859 26.5394 267.197 31.2348C277.886 37.3855 293.662 51.183 280.155 93.1322L276.88 107.212L204.236 111.834Z" id="Shape" fill="#3A3583" stroke="none" />
          <path d="M306.246 373.412C318.963 234.091 313.402 177.554 313.402 177.554C313.402 177.554 293.346 172.725 266.773 164.547C263.939 152.137 265.269 126.437 265.269 126.437L218.898 127.485C217.377 138.589 218.067 155.296 216.57 164.754C198.035 171.304 176.458 171.113 155.396 180.912C155.396 180.912 181.437 287.917 190.804 376.878C191.818 386.536 305.132 385.664 306.246 373.412L306.246 373.412Z" id="Shape" fill="#C38B95" stroke="none" />
          <path d="M270.538 131.848C258.262 143.485 243.002 159.077 210.295 130.128C203.895 124.459 204.352 115.782 204.02 103.322C203.612 88.5608 200.088 79.5176 201.759 71.0231C203.745 60.8495 212.464 56.2781 230.526 54.7571C263.69 51.981 280.396 59.4947 278.152 75.9436C273.073 112.648 283.031 119.979 270.538 131.848L270.538 131.848Z" id="Shape" fill="#CCA1AA" stroke="none" />
          <path d="M201.352 61.8718C191.078 81.1385 172.792 79.6921 172.792 79.6921C172.792 79.6921 190.688 96.4153 210.578 89.741C230.468 83.0666 244.656 52.3382 244.656 52.3382C233.468 36.28 206.546 52.0391 201.352 61.8718L201.352 61.8718Z" id="Shape" fill="#3A3583" stroke="none" />
          <path d="M254.912 51.2494C252.095 51.8728 243.741 54.1918 243.741 54.1918C243.741 54.1918 263.399 53.8427 267.845 60.4256C272.292 67.0085 272.916 74.3644 275.168 78.0714C276.531 80.462 277.177 83.1945 277.03 85.9426C277.03 85.9426 293.977 42.6218 254.912 51.2494L254.912 51.2494Z" id="Shape" fill="#3A3583" stroke="none" />
          <path d="M389.371 307.201C389.371 307.201 356.34 313.8 341.246 332.202C341.246 332.202 325.454 297.035 323.733 297.293C323.733 297.293 323.733 297.293 323.733 297.293C322.154 297.925 307.534 370.894 309.421 376.088C311.307 381.283 326.169 398.971 328.056 402.744C328.887 404.406 319.229 411.413 305.414 418.678C288.035 427.821 264.072 437.429 246.193 437.429C214.509 437.429 163.974 422.551 164.672 412.494C164.681 412.365 164.698 412.238 164.722 412.112C165.428 408.579 186.74 385.514 187.679 374.709C188.618 363.903 171.67 296.77 169.493 296.986L169.443 296.986C167.556 298.557 152.296 335.353 152.296 335.353C152.296 335.353 121.31 311.922 107.629 310.509C107.629 310.509 137.975 197.735 154.731 179.807C154.731 179.807 162.752 177.521 190.588 169.974C190.588 169.974 209.855 229.819 244.772 255.303C244.772 255.303 283.937 224.632 291.318 170.922C291.318 170.922 328.205 180.065 331.347 183.822C334.489 187.579 389.371 307.201 389.371 307.201L389.371 307.201Z" id="Shape" fill="#595AA3" stroke="none" />
          <path d="M210.619 380.336C207.145 385.83 175.984 414.771 164.647 412.494C164.656 412.365 164.673 412.238 164.697 412.111C165.403 408.579 186.715 385.514 187.654 374.709C188.593 363.903 171.645 296.77 169.468 296.986C170.76 293.832 172.922 291.111 175.702 289.139C183.598 283.446 214.393 374.393 210.619 380.336L210.619 380.336Z" id="Shape" fill="#53529E" stroke="none" />
          <path d="M305.389 418.678C295.798 402.885 288.849 380.186 287.935 377.269C286.514 372.789 306.802 299.138 316.718 295.398C320.7 293.885 322.736 295.182 323.742 297.277C323.742 297.277 323.742 297.277 323.742 297.277C322.163 297.908 307.542 370.877 309.429 376.072C311.316 381.267 326.177 398.954 328.064 402.728C328.87 404.415 319.204 411.413 305.389 418.678L305.389 418.678Z" id="Shape" fill="#53529E" stroke="none" />
          <path d="M406.693 474.433C405.263 475.929 403.737 477.378 402.113 478.78C389.413 489.768 352.417 501.828 316.851 511.503C305.68 514.553 294.659 517.321 284.569 519.815C276.257 522.408 259.284 527.786 241.14 534.103C215.531 543.021 204.327 538.757 191.635 536.513C178.943 534.269 164.622 543.162 145.821 536.28C127.02 529.398 131.782 492.419 131.782 492.419C138.149 488.263 162.893 487.042 179.65 499.069C196.406 511.096 218.864 508.86 218.864 508.86C219.696 508.943 221.765 507.921 224.575 506.167C224.575 506.167 246.26 493.475 285.707 460.66C291.459 455.873 297.585 450.65 304.084 444.993C319.046 431.91 332.777 416.217 346.807 405.188C354.936 398.796 363.173 393.967 371.842 392.13C412.07 383.594 426.383 399.228 426.383 399.228C426.383 399.228 435.385 444.569 406.693 474.433L406.693 474.433Z" id="Shape" fill="#C38B95" stroke="none" />
          <path d="M217.476 473.901L217.476 527.678C205.898 523.796 195.799 520.579 189.349 518.535C179.566 515.9 169.011 512.941 158.455 509.749C129.555 501.03 100.73 490.632 87.9796 480.908C87.0321 480.184 86.1843 479.47 85.4279 478.763C53.8434 449.182 65.9203 396.677 65.9203 396.677C65.9203 396.677 76.2186 383.561 113.422 392.097C122.773 394.233 132.248 399.428 141.748 406.285C154.44 415.428 167.157 427.546 179.633 439.299C183.855 443.272 187.967 447.104 191.968 450.794C201.26 459.397 209.863 467.152 217.476 473.901L217.476 473.901Z" id="Shape" fill="#CCA1AA" stroke="none" />
          <path d="M233.418 533.147C235.288 533.803 237.067 534.393 238.788 534.917C214.825 542.78 203.937 538.707 191.635 536.579C178.952 534.344 164.622 543.229 145.821 536.347C127.02 529.465 131.782 492.419 131.782 492.419C137.202 488.87 155.936 487.432 171.72 494.547C167.772 500.465 163.334 505.843 158.421 509.791C168.977 512.982 179.533 515.941 189.316 518.576C198.642 521.51 215.473 526.863 233.418 533.147L233.418 533.147Z" id="Shape" fill="#C38B95" stroke="none" />
          <path d="M241.572 494.83C230.426 502.726 224.575 506.15 224.575 506.15C221.765 507.904 219.721 508.926 218.864 508.843C218.864 508.843 196.423 511.079 179.65 499.052C177.169 497.274 174.512 495.756 171.72 494.522C174.023 491.073 176.15 487.449 178.087 483.817C183.658 473.236 188.302 462.193 191.968 450.811C210.736 468.141 226.702 482.104 237.333 491.214L241.572 494.83Z" id="Shape" fill="#C68216" stroke="none" />
          <path d="M339.684 504.987C339.044 513.581 336.542 534.302 327.216 537.336C310.958 542.606 298.192 534.161 284.768 536.621C272.301 538.915 261.977 542.107 238.804 534.901C239.569 534.651 240.359 534.394 241.156 534.111C259.301 527.794 276.24 522.417 284.585 519.823C294.676 517.33 305.697 514.554 316.868 511.512C324.482 509.433 332.17 507.247 339.684 504.987L339.684 504.987Z" id="Shape" fill="#B66C0C" stroke="none" />
          <path d="M217.476 389.562L212.946 418.653C170.357 419.185 97.1059 383.411 97.1059 383.411C86.7163 367.328 106.157 314.033 107.911 309.437C124.967 310.825 139.737 326.933 149.47 333.258L138.324 356.714C142.147 358.177 217.476 389.562 217.476 389.562L217.476 389.562Z" id="Shape" fill="#C38B95" stroke="none" />
          <path d="M278.177 389.562L282.715 418.653C325.304 419.185 398.556 383.411 398.556 383.411C408.937 367.328 388.582 312.387 386.828 307.774C369.78 309.171 352.326 321.198 343.707 329.509L357.396 356.747C353.506 358.177 278.177 389.562 278.177 389.562L278.177 389.562Z" id="Shape" fill="#C38B95" stroke="none" />
          <path d="M164.647 321.846L331.638 321.846L331.638 427.463L164.647 427.463L164.647 321.846Z" id="Rectangle" fill="#C68216" fill-rule="evenodd" stroke="none" />
          <path d="M240.949 374.659C240.949 370.679 244.175 367.453 248.155 367.453C252.135 367.453 255.361 370.679 255.361 374.659C255.361 378.639 252.135 381.865 248.155 381.865C246.244 381.865 244.411 381.106 243.059 379.754C241.708 378.403 240.949 376.57 240.949 374.659L240.949 374.659Z" id="Shape" fill="#B66C0C" stroke="none" />
          <path d="M141.748 406.302C139.897 407.794 137.727 408.84 135.406 409.36C108.85 416.392 93.7812 459.945 87.9796 480.924C87.0321 480.201 86.1843 479.486 85.4279 478.78C53.8434 449.198 65.9203 396.693 65.9203 396.693C65.9203 396.693 76.2186 383.577 113.422 392.113C122.773 394.249 132.248 399.444 141.748 406.302L141.748 406.302Z" id="Shape" fill="#5A59A3" stroke="none" />
          <path d="M406.693 474.433C396.611 449.697 361.768 418.013 346.807 405.171C354.936 398.779 363.173 393.95 371.842 392.113C412.07 383.577 426.383 399.212 426.383 399.212C426.383 399.212 435.385 444.569 406.693 474.433L406.693 474.433Z" id="Shape" fill="#5A59A3" stroke="none" />
          <path d="M316.851 511.536C305.68 514.587 294.659 517.354 284.569 519.848C276.257 522.441 259.284 527.819 241.14 534.136C215.531 543.054 204.327 538.79 191.635 536.546C178.943 534.302 164.622 543.196 145.821 536.313C127.02 529.431 131.782 492.419 131.782 492.419C138.149 488.263 162.893 487.042 179.65 499.069C196.406 511.096 218.864 508.86 218.864 508.86C219.696 508.943 221.765 507.921 224.575 506.167C224.575 506.167 246.26 493.475 285.707 460.66C289.639 471.881 300.311 498.553 316.851 511.536L316.851 511.536Z" id="Shape" fill="#C68216" stroke="none" />
          <path d="M241.572 494.83C230.426 502.726 224.575 506.15 224.575 506.15C221.765 507.904 219.721 508.926 218.864 508.843C218.864 508.843 196.423 511.079 179.65 499.052C177.169 497.274 174.512 495.756 171.72 494.522C174.023 491.073 176.15 487.449 178.087 483.817C190.347 487.973 215.116 494.688 237.333 491.214L241.572 494.83Z" id="Shape" fill="#B66C0C" stroke="none" />
        </g>
        <path d="M1730.62 1322.82L1734.31 1322.82C1731.12 1323.27 1729.39 1323.65 1729.39 1323.65L1730.62 1322.82Z" id="Shape" fill="#C48017" stroke="none" />
        <path d="M1995.65 1422.14L1995.65 1443.14C1995.61 1449.48 1990.47 1454.6 1984.13 1454.6L1553.75 1454.6C1547.41 1454.6 1542.27 1449.48 1542.23 1443.14L1542.23 1422.14C1542.27 1415.8 1547.41 1410.68 1553.75 1410.67L1984.13 1410.67C1990.47 1410.68 1995.61 1415.8 1995.65 1422.14L1995.65 1422.14Z" id="Shape" fill="#DDC558" stroke="none" />
        <path d="M2066.67 1378.2L2066.67 1399.2C2066.64 1405.54 2061.49 1410.66 2055.16 1410.67L1624.78 1410.67C1618.44 1410.66 1613.3 1405.54 1613.26 1399.2L1613.26 1378.2C1613.3 1371.87 1618.44 1366.75 1624.78 1366.74L2055.16 1366.74C2061.49 1366.74 2066.64 1371.86 2066.67 1378.2L2066.67 1378.2Z" id="Shape" fill="#DDC558" stroke="none" />
        <path d="M2085.69 1290.55L2085.69 1311.59C2085.67 1317.92 2080.52 1323.04 2074.19 1323.04L1643.8 1323.04C1637.47 1323.04 1632.33 1317.92 1632.3 1311.59L1632.3 1290.59C1632.33 1284.26 1637.47 1279.13 1643.8 1279.12L2074.19 1279.12C2080.51 1279.13 2085.64 1284.23 2085.69 1290.55L2085.69 1290.55Z" id="Shape" fill="#DDC558" stroke="none" />
        <path d="M2019.62 1334.28L2019.62 1355.28C2019.58 1361.61 2014.44 1366.73 2008.1 1366.74L1577.72 1366.74C1571.39 1366.73 1566.24 1361.61 1566.21 1355.28L1566.21 1334.28C1566.24 1327.94 1571.39 1322.82 1577.72 1322.82L2008.11 1322.82C2014.45 1322.83 2019.58 1327.95 2019.62 1334.28L2019.62 1334.28Z" id="Shape" fill="#DDC558" stroke="none" />
        <path d="M1995.65 1422.14L1995.65 1443.14C1995.61 1449.48 1990.47 1454.6 1984.13 1454.6L1925.12 1454.6C1905.23 1426.08 1837.99 1414.71 1772.18 1410.67L1984.13 1410.67C1990.47 1410.68 1995.61 1415.8 1995.65 1422.14L1995.65 1422.14Z" id="Shape" fill="#C48017" fill-opacity="0.4" stroke="none" />
        <path d="M1894.46 1366.74C1771.17 1366.74 1708.5 1396.71 1685.99 1410.67L1624.78 1410.67C1618.44 1410.66 1613.3 1405.54 1613.26 1399.2L1613.26 1378.2C1613.3 1371.87 1618.44 1366.75 1624.78 1366.74L1894.46 1366.74Z" id="Shape" fill="#C48017" fill-opacity="0.4" stroke="none" />
        <path d="M1643.8 1279.08L1876.35 1279.08C1799.05 1279.48 1692.87 1318.65 1689.18 1322.82L1688.96 1323L1643.8 1323C1637.47 1323 1632.33 1317.88 1632.3 1311.55L1632.3 1290.55C1632.33 1284.22 1637.47 1279.09 1643.8 1279.08L1643.8 1279.08Z" id="Shape" fill="#C48017" fill-opacity="0.4" stroke="none" />
        <path d="M1002.5 340.989L950.03 340.989C945.57 340.975 941.957 337.362 941.943 332.901L941.943 332.901C941.952 328.437 945.567 324.819 950.031 324.806L1002.5 324.806C1006.97 324.815 1010.59 328.434 1010.6 332.901L1010.6 332.901C1010.58 337.365 1006.97 340.979 1002.5 340.989L1002.5 340.989Z" id="Shape" fill="#595AA3" stroke="none" />
        <path d="M1389.28 340.989L1336.81 340.989C1332.35 340.975 1328.73 337.362 1328.72 332.901L1328.72 332.901C1328.73 328.437 1332.34 324.819 1336.81 324.806L1389.28 324.806C1393.74 324.819 1397.36 328.437 1397.37 332.901L1397.37 332.901C1397.35 337.362 1393.74 340.975 1389.28 340.989L1389.28 340.989Z" id="Shape" fill="#595AA3" stroke="none" />
      </g>
    </g>
  </g>
</svg>